<?xml version="1.0" encoding="UTF-8" standalone="no"?>
<svg
   xmlns:dc="http://purl.org/dc/elements/1.1/"
   xmlns:cc="http://creativecommons.org/ns#"
   xmlns:rdf="http://www.w3.org/1999/02/22-rdf-syntax-ns#"
   xmlns:svg="http://www.w3.org/2000/svg"
   xmlns="http://www.w3.org/2000/svg"
   xmlns:sodipodi="http://sodipodi.sourceforge.net/DTD/sodipodi-0.dtd"
   xmlns:inkscape="http://www.inkscape.org/namespaces/inkscape"
   viewBox="0 0 48 48"
   id="svg2"
   version="1.1"
   inkscape:version="0.91 r13725"
   sodipodi:docname="amule.svg">
  <metadata
     id="metadata57">
    <rdf:RDF>
      <cc:Work
         rdf:about="">
        <dc:format>image/svg+xml</dc:format>
        <dc:type
           rdf:resource="http://purl.org/dc/dcmitype/StillImage" />
        <dc:title></dc:title>
      </cc:Work>
    </rdf:RDF>
  </metadata>
  <sodipodi:namedview
     pagecolor="#ffffff"
     bordercolor="#666666"
     borderopacity="1"
     objecttolerance="10"
     gridtolerance="10"
     guidetolerance="10"
     inkscape:pageopacity="0"
     inkscape:pageshadow="2"
     inkscape:window-width="1321"
     inkscape:window-height="744"
     id="namedview55"
     showgrid="false"
     inkscape:zoom="8.4265137"
     inkscape:cx="8.3734319"
     inkscape:cy="17.952859"
     inkscape:window-x="39"
     inkscape:window-y="24"
     inkscape:window-maximized="1"
     inkscape:current-layer="svg2" />
  <defs
     id="defs4">
    <linearGradient
       id="linearGradient3764"
       x1="1"
       x2="47"
       gradientUnits="userSpaceOnUse"
       gradientTransform="matrix(0,-1,1,0,-1.5e-6,47.999998)">
      <stop
         style="stop-color:#ec9b28;stop-opacity:1"
         id="stop7" />
      <stop
         offset="1"
         style="stop-color:#eea53a;stop-opacity:1"
         id="stop9" />
    </linearGradient>
  </defs>
  <g
     id="g11">
    <path
       d="m 36.31 5 c 5.859 4.062 9.688 10.831 9.688 18.5 c 0 12.426 -10.07 22.5 -22.5 22.5 c -7.669 0 -14.438 -3.828 -18.5 -9.688 c 1.037 1.822 2.306 3.499 3.781 4.969 c 4.085 3.712 9.514 5.969 15.469 5.969 c 12.703 0 23 -10.298 23 -23 c 0 -5.954 -2.256 -11.384 -5.969 -15.469 c -1.469 -1.475 -3.147 -2.744 -4.969 -3.781 z m 4.969 3.781 c 3.854 4.113 6.219 9.637 6.219 15.719 c 0 12.703 -10.297 23 -23 23 c -6.081 0 -11.606 -2.364 -15.719 -6.219 c 4.16 4.144 9.883 6.719 16.219 6.719 c 12.703 0 23 -10.298 23 -23 c 0 -6.335 -2.575 -12.06 -6.719 -16.219 z"
       style="opacity:0.05"
       id="path13" />
    <path
       d="m 41.28 8.781 c 3.712 4.085 5.969 9.514 5.969 15.469 c 0 12.703 -10.297 23 -23 23 c -5.954 0 -11.384 -2.256 -15.469 -5.969 c 4.113 3.854 9.637 6.219 15.719 6.219 c 12.703 0 23 -10.298 23 -23 c 0 -6.081 -2.364 -11.606 -6.219 -15.719 z"
       style="opacity:0.1"
       id="path15" />
    <path
       d="m 31.25 2.375 c 8.615 3.154 14.75 11.417 14.75 21.13 c 0 12.426 -10.07 22.5 -22.5 22.5 c -9.708 0 -17.971 -6.135 -21.12 -14.75 a 23 23 0 0 0 44.875 -7 a 23 23 0 0 0 -16 -21.875 z"
       style="opacity:0.2"
       id="path17" />
  </g>
  <g
     id="g19"
     style="fill:#e91e63">
    <path
       d="m 24 1 c 12.703 0 23 10.297 23 23 c 0 12.703 -10.297 23 -23 23 -12.703 0 -23 -10.297 -23 -23 0 -12.703 10.297 -23 23 -23 z"
       style="fill:#e91e63;fill-opacity:1"
       id="path21" />
  </g>
  <g
     id="g23">
    <g
       id="g25">
      <g
         transform="translate(1,1)"
         id="g27">
        <g
           style="opacity:0.1"
           id="g29">
          <!-- color: #eea53a -->
        </g>
      </g>
    </g>
  </g>
  <g
     id="g33">
    <g
       id="g35">
      <!-- color: #eea53a -->
    </g>
  </g>
  <g
     id="g41"
     transform="matrix(1.2027354,0,0,1.2027354,-4.8656496,-4.4600153)">
    <path
       d="m 24,18 a 7,7 0 0 0 -7,7 7,7 0 0 0 7,7 7,7 0 0 0 7,-7 7,7 0 0 0 -7,-7 z m 0.969,2.867 c 0.734,0.004 1.494,0.163 2.061,0.658 0.574,0.505 0.706,1.346 0.46,2.039 -0.29,0.832 -1.138,1.27 -1.947,1.476 -1.175,0.311 -2.393,0.333 -3.594,0.323 -0.122,0.423 -0.112,0.867 -0.088,1.299 0.034,0.598 0.379,1.246 1.01,1.378 0.755,0.16 1.532,0.04 2.289,-0.085 0.368,-0.059 0.87,-0.548 1.12,-0.244 0.241,0.289 0,0.836 -0.288,1.055 -0.442,0.334 -1.044,0.394 -1.592,0.454 -0.734,0.09 -1.491,0.07 -2.21,-0.09 -0.929,-0.222 -1.65,-1.05 -1.733,-2 -0.14,-1.596 0.226,-3.274 1.172,-4.583 0.76,-1.053 2.038,-1.687 3.34,-1.68 z m -0.084,1.1 c -0.557,0.015 -1.102,0.173 -1.549,0.504 -0.594,0.436 -0.919,1.153 -1.126,1.843 1,-0.008 2.03,0.036 3.01,-0.264 0.553,-0.172 1.078,-0.712 0.94,-1.32 -0.13,-0.56 -0.753,-0.777 -1.275,-0.763 z"
       style="opacity:1;fill:#f9f9f9;fill-opacity:1;stroke:none"
       id="path43"
       inkscape:connector-curvature="0" />
    <circle
       r="3"
       cy="13"
       cx="24"
       style="opacity:1;fill:#f9f9f9;fill-opacity:1;stroke:none"
       id="circle45" />
    <rect
       y="14"
       x="23"
       height="6"
       width="2"
       style="opacity:1;fill:#f9f9f9;fill-opacity:1;stroke:none"
       id="rect47" />
    <circle
       r="3"
       cy="12.474"
       cx="24.304001"
       transform="matrix(-0.5,-0.8660254,0.8660254,-0.5,14.349365,58.28461)"
       style="opacity:1;fill:#f9f9f9;fill-opacity:1;stroke:none"
       id="circle49" />
    <circle
       cx="23.695999"
       cy="12.474"
       r="3"
       transform="matrix(-0.5,0.8660254,-0.8660254,-0.5,57.650635,16.715391)"
       style="opacity:1;fill:#f9f9f9;fill-opacity:1;stroke:none"
       id="circle51" />
    <path
       d="m 19,26.59 -6.479,3.533 0.957,1.754 5.521,-3.01 0,-2.275 z m 10,0 0,2.275 5.521,3.01 0.957,-1.754 -6.479,-3.533 z"
       mix-blend-mode="normal"
       isolation="auto"
       white-space="normal"
       style="color:#000000;white-space:normal;display:inline;visibility:visible;opacity:1;isolation:auto;mix-blend-mode:normal;color-interpolation:sRGB;color-interpolation-filters:linearRGB;solid-color:#000000;solid-opacity:1;fill:#f9f9f9;fill-opacity:1;fill-rule:evenodd;stroke:none;color-rendering:auto;image-rendering:auto;shape-rendering:auto"
       id="path53"
       inkscape:connector-curvature="0" />
  </g>
</svg>
