<?xml version="1.0" encoding="UTF-8" standalone="no"?>
<svg
   xmlns:dc="http://purl.org/dc/elements/1.1/"
   xmlns:cc="http://creativecommons.org/ns#"
   xmlns:rdf="http://www.w3.org/1999/02/22-rdf-syntax-ns#"
   xmlns:svg="http://www.w3.org/2000/svg"
   xmlns="http://www.w3.org/2000/svg"
   xmlns:sodipodi="http://sodipodi.sourceforge.net/DTD/sodipodi-0.dtd"
   xmlns:inkscape="http://www.inkscape.org/namespaces/inkscape"
   viewBox="0 0 48 48"
   id="svg2"
   version="1.1"
   inkscape:version="0.91 r13725"
   sodipodi:docname="bless.svg">
  <metadata
     id="metadata83">
    <rdf:RDF>
      <cc:Work
         rdf:about="">
        <dc:format>image/svg+xml</dc:format>
        <dc:type
           rdf:resource="http://purl.org/dc/dcmitype/StillImage" />
        <dc:title></dc:title>
      </cc:Work>
    </rdf:RDF>
  </metadata>
  <sodipodi:namedview
     pagecolor="#ffffff"
     bordercolor="#666666"
     borderopacity="1"
     objecttolerance="10"
     gridtolerance="10"
     guidetolerance="10"
     inkscape:pageopacity="0"
     inkscape:pageshadow="2"
     inkscape:window-width="1321"
     inkscape:window-height="744"
     id="namedview81"
     showgrid="false"
     inkscape:zoom="11.91689"
     inkscape:cx="22.744214"
     inkscape:cy="23.281491"
     inkscape:window-x="39"
     inkscape:window-y="24"
     inkscape:window-maximized="1"
     inkscape:current-layer="svg2" />
  <defs
     id="defs4">
    <linearGradient
       id="linearGradient3764"
       x1="1"
       x2="47"
       gradientUnits="userSpaceOnUse"
       gradientTransform="matrix(0,-1,1,0,-1.5e-6,47.999998)">
      <stop
         style="stop-color:#e4e4e4;stop-opacity:1"
         id="stop7" />
      <stop
         offset="1"
         style="stop-color:#eee;stop-opacity:1"
         id="stop9" />
    </linearGradient>
  </defs>
  <g
     id="g19">
    <path
       d="m 24 1 c 12.703 0 23 10.297 23 23 c 0 12.703 -10.297 23 -23 23 -12.703 0 -23 -10.297 -23 -23 0 -12.703 10.297 -23 23 -23 z"
       style="fill:url(#linearGradient3764);fill-opacity:1"
       id="path21" />
  </g>
  <g
     id="g35">
    <g
       id="g37">
      <!-- color: #eeeeee -->
      <g
         id="g39">
        <path
           d="m 15.273,14 17.453,0 c 1.809,0 3.273,1.465 3.273,3.273 l 0,13.449 c 0,1.809 -1.465,3.273 -3.273,3.273 l -17.453,0 C 13.468,33.995 12,32.53 12,30.722 L 12,17.273 C 12,15.464 13.469,14 15.273,14 m 0,0"
           style="fill:#2d2d2d;fill-opacity:1;stroke:none;fill-rule:nonzero"
           id="path41" />
        <path
           d="m 15.617,16 16.766,0 c 0.891,0 1.613,0.727 1.613,1.617 l 0,12.77 c 0,0.895 -0.723,1.617 -1.613,1.617 l -16.766,0 C 14.722,32.004 14,31.281 14,30.387 l 0,-12.77 C 14,16.726 14.723,16 15.617,16 m 0,0"
           style="fill:#868686;fill-opacity:1;stroke:none;fill-rule:nonzero"
           id="path43" />
        <path
           d="m 16 17 0 3.996 3 0 0 -4 -3 0 m 1 1 1 0 0 2 -1 0 m 0 -2"
           style="fill:#2d2d2d;fill-opacity:1;stroke:none;fill-rule:nonzero"
           id="path45" />
        <path
           d="m 20 17 0 3.996 2.996 0 0 -4 -2.996 0 m 0.996 1 1 0 0 2 -1 0 m 0 -2"
           style="fill:#2d2d2d;fill-opacity:1;stroke:none;fill-rule:nonzero"
           id="path47" />
        <path
           d="m 24,17 0,1 0.996,0 0,2 -0.996,0 0,0.996 2.996,0 0,-0.996 -1,0 0,-3 L 24,17 m 0,0.004"
           style="fill:#2d2d2d;fill-opacity:1;stroke:none;fill-rule:nonzero"
           id="path49" />
        <path
           d="m 27.961 16.957 0 4 2.996 0 0 -4 -2.996 0 m 1 1 0.996 0 0 2 -0.996 0 m 0 -2"
           style="fill:#2d2d2d;fill-opacity:1;stroke:none;fill-rule:nonzero"
           id="path51" />
        <path
           d="m 16 22 0 3.996 3 0 0 -4 -3 0 m 1 1 1 0 0 1.996 -1 0 m 0 -1.996"
           style="fill:#2d2d2d;fill-opacity:1;stroke:none;fill-rule:nonzero"
           id="path53" />
        <path
           d="m 20,22 0,1 0.996,0 0,1.996 -0.996,0 0,1 2.996,0 0,-1 -1,0 0,-3 -1.996,0 M 20,22"
           style="fill:#2d2d2d;fill-opacity:1;stroke:none;fill-rule:nonzero"
           id="path55" />
        <path
           d="m 24 22 0 3.996 2.996 0 0 -4 -2.996 0 m 0.996 1 1 0 0 1.996 -1 0 m 0 -1.996"
           style="fill:#2d2d2d;fill-opacity:1;stroke:none;fill-rule:nonzero"
           id="path57" />
        <path
           d="m 28 22 0 3.996 2.996 0 0 -4 -2.996 0 m 1 1 0.996 0 0 1.996 -0.996 0 m 0 -1.996"
           style="fill:#2d2d2d;fill-opacity:1;stroke:none;fill-rule:nonzero"
           id="path59" />
        <path
           d="m 16,27 0,1 1,0 0,1.996 -1,0 0,1 3,0 0,-1 -1,0 0,-3 -2,0 M 16,27"
           style="fill:#2d2d2d;fill-opacity:1;stroke:none;fill-rule:nonzero"
           id="path61" />
        <path
           d="m 20 27 0 3.996 2.996 0 0 -4 -2.996 0 m 0.996 1 1 0 0 1.996 -1 0 m 0 -1.996"
           style="fill:#2d2d2d;fill-opacity:1;stroke:none;fill-rule:nonzero"
           id="path63" />
        <path
           d="m 24,27 0,1 0.996,0 0,1.996 -0.996,0 0,1 2.996,0 0,-1 -1,0 0,-3 -1.996,0 M 24,27"
           style="fill:#2d2d2d;fill-opacity:1;stroke:none;fill-rule:nonzero"
           id="path65" />
        <path
           d="m 28,27 0,1 1,0 0,1.996 -1,0 0,1 2.996,0 0,-1 -1,0 0,-3 -1.996,0 M 28,27"
           style="fill:#2d2d2d;fill-opacity:1;stroke:none;fill-rule:nonzero"
           id="path67" />
        <path
           d="m 25.313,32.06 9.453,-10.02 2.906,2.746 -9.453,10.02 M 25.313,32.06"
           style="fill:#ff6f03;fill-opacity:1;stroke:none;fill-rule:nonzero"
           id="path69" />
        <path
           d="m 34.26 22.586 2.898 2.746 1.684 -1.773 c 0 0 0.145 -0.633 -1.07 -1.781 -1.176 -1.109 -1.887 -0.918 -1.887 -0.918 l -1.629 1.727 m 0.004 0"
           style="fill:#ff2d5b;fill-opacity:1;stroke:none;fill-rule:nonzero"
           id="path71" />
        <path
           d="m 25.336 32.03 -1.293 4.281 4.199 -1.539 -2.906 -2.746 m 0 0.004"
           style="fill:#ffc13d;fill-opacity:1;stroke:none;fill-rule:nonzero"
           id="path73" />
        <path
           d="m 24.676 34.17 -0.633 2.145 2.109 -0.758 -1.477 -1.398 m 0 0.012"
           style="fill:#2d2d2d;fill-opacity:1;stroke:none;fill-rule:nonzero"
           id="path75" />
      </g>
    </g>
  </g>
</svg>
