<?xml version="1.0" encoding="UTF-8" standalone="no"?>
<svg
   xmlns:dc="http://purl.org/dc/elements/1.1/"
   xmlns:cc="http://creativecommons.org/ns#"
   xmlns:rdf="http://www.w3.org/1999/02/22-rdf-syntax-ns#"
   xmlns:svg="http://www.w3.org/2000/svg"
   xmlns="http://www.w3.org/2000/svg"
   xmlns:sodipodi="http://sodipodi.sourceforge.net/DTD/sodipodi-0.dtd"
   xmlns:inkscape="http://www.inkscape.org/namespaces/inkscape"
   viewBox="0 0 48 48"
   id="svg2"
   version="1.1"
   inkscape:version="0.91 r13725"
   sodipodi:docname="chromium-bsu.svg">
  <metadata
     id="metadata69">
    <rdf:RDF>
      <cc:Work
         rdf:about="">
        <dc:format>image/svg+xml</dc:format>
        <dc:type
           rdf:resource="http://purl.org/dc/dcmitype/StillImage" />
        <dc:title></dc:title>
      </cc:Work>
    </rdf:RDF>
  </metadata>
  <sodipodi:namedview
     pagecolor="#ffffff"
     bordercolor="#666666"
     borderopacity="1"
     objecttolerance="10"
     gridtolerance="10"
     guidetolerance="10"
     inkscape:pageopacity="0"
     inkscape:pageshadow="2"
     inkscape:window-width="1321"
     inkscape:window-height="744"
     id="namedview67"
     showgrid="false"
     inkscape:zoom="16.853027"
     inkscape:cx="21.190568"
     inkscape:cy="25.916308"
     inkscape:window-x="39"
     inkscape:window-y="24"
     inkscape:window-maximized="1"
     inkscape:current-layer="svg2" />
  <defs
     id="defs4">
    <linearGradient
       id="linearGradient3764"
       x1="1"
       x2="47"
       gradientUnits="userSpaceOnUse"
       gradientTransform="matrix(0,-1,1,0,-1.5e-6,47.999998)">
      <stop
         style="stop-color:#e4e4e4;stop-opacity:1"
         id="stop7" />
      <stop
         offset="1"
         style="stop-color:#eee;stop-opacity:1"
         id="stop9" />
    </linearGradient>
  </defs>
  <g
     id="g19">
    <path
       d="m 24 1 c 12.703 0 23 10.297 23 23 c 0 12.703 -10.297 23 -23 23 -12.703 0 -23 -10.297 -23 -23 0 -12.703 10.297 -23 23 -23 z"
       style="fill:url(#linearGradient3764);fill-opacity:1"
       id="path21" />
  </g>
  <g
     id="g45">
    <g
       id="g47">
      <!-- color: #eeeeee -->
      <g
         id="g49">
        <path
           d="m 24 11 l -13 22 l 26 0 m -13 -13 c 1.66 0 3 0.992 3 2.219 l 0 5.563 c 0 1.227 -1.34 2.219 -3 2.219 c -1.66 0 -3 -0.992 -3 -2.219 l 0 -5.563 c 0 -1.227 1.34 -2.219 3 -2.219 m 0 0"
           style="fill:#863db9;fill-opacity:1;stroke:none;fill-rule:nonzero"
           id="path51" />
        <path
           d="m 18 29 l 0.004 0 c 1.102 0 2 0.793 2 1.77 l 0 4.457 c 0 0.98 -0.898 1.773 -2 1.773 l -0.004 0 c -1.105 0 -2 -0.793 -2 -1.773 l 0 -4.457 c 0 -0.977 0.895 -1.77 2 -1.77 m 0 0"
           style="fill:#863db9;fill-opacity:1;stroke:none;fill-rule:nonzero"
           id="path53" />
        <path
           d="m 29.996 29 l 0.004 0 c 1.105 0 2 0.793 2 1.77 l 0 4.457 c 0 0.98 -0.895 1.773 -2 1.773 l -0.004 0 c -1.102 0 -1.996 -0.793 -1.996 -1.773 l 0 -4.457 c 0 -0.977 0.895 -1.77 1.996 -1.77 m 0 0"
           style="fill:#863db9;fill-opacity:1;stroke:none;fill-rule:nonzero"
           id="path55" />
        <path
           d="m 24 21 l 0.004 0 c 1.102 0 1.996 0.793 1.996 1.773 l 0 4.457 c 0 0.977 -0.895 1.773 -1.996 1.773 l -0.004 0 c -1.105 0 -2 -0.797 -2 -1.773 l 0 -4.457 c 0 -0.98 0.895 -1.773 2 -1.773 m 0 0"
           style="fill:#863db9;fill-opacity:1;stroke:none;fill-rule:nonzero"
           id="path57" />
        <path
           d="m 15.5 18 l 0.004 0 c 0.824 0 1.496 0.793 1.496 1.773 l 0 8.457 c 0 0.977 -0.672 1.77 -1.496 1.77 l -0.004 0 c -0.828 0 -1.5 -0.793 -1.5 -1.77 l 0 -8.457 c 0 -0.98 0.672 -1.773 1.5 -1.773 m 0 0"
           style="fill:#863db9;fill-opacity:1;stroke:none;fill-rule:nonzero"
           id="path59" />
        <path
           d="m 32.5 18 l 0.004 0 c 0.828 0 1.496 0.793 1.496 1.773 l 0 8.457 c 0 0.977 -0.668 1.77 -1.496 1.77 l -0.004 0 c -0.828 0 -1.5 -0.793 -1.5 -1.77 l 0 -8.457 c 0 -0.98 0.672 -1.773 1.5 -1.773 m 0 0"
           style="fill:#863db9;fill-opacity:1;stroke:none;fill-rule:nonzero"
           id="path61" />
      </g>
    </g>
  </g>
</svg>
