<?xml version="1.0" encoding="UTF-8" standalone="no"?>
<svg
   xmlns:dc="http://purl.org/dc/elements/1.1/"
   xmlns:cc="http://creativecommons.org/ns#"
   xmlns:rdf="http://www.w3.org/1999/02/22-rdf-syntax-ns#"
   xmlns:svg="http://www.w3.org/2000/svg"
   xmlns="http://www.w3.org/2000/svg"
   xmlns:sodipodi="http://sodipodi.sourceforge.net/DTD/sodipodi-0.dtd"
   xmlns:inkscape="http://www.inkscape.org/namespaces/inkscape"
   viewBox="0 0 48 48"
   id="svg2"
   version="1.1"
   inkscape:version="0.91 r13725"
   sodipodi:docname="ericWeb.svg">
  <metadata
     id="metadata59">
    <rdf:RDF>
      <cc:Work
         rdf:about="">
        <dc:format>image/svg+xml</dc:format>
        <dc:type
           rdf:resource="http://purl.org/dc/dcmitype/StillImage" />
        <dc:title></dc:title>
      </cc:Work>
    </rdf:RDF>
  </metadata>
  <sodipodi:namedview
     pagecolor="#ffffff"
     bordercolor="#666666"
     borderopacity="1"
     objecttolerance="10"
     gridtolerance="10"
     guidetolerance="10"
     inkscape:pageopacity="0"
     inkscape:pageshadow="2"
     inkscape:window-width="1321"
     inkscape:window-height="744"
     id="namedview57"
     showgrid="false"
     inkscape:zoom="8.4265137"
     inkscape:cx="11.271708"
     inkscape:cy="29.411083"
     inkscape:window-x="39"
     inkscape:window-y="24"
     inkscape:window-maximized="1"
     inkscape:current-layer="svg2" />
  <defs
     id="defs4">
    <linearGradient
       id="linearGradient3764"
       x1="1"
       x2="47"
       gradientUnits="userSpaceOnUse"
       gradientTransform="matrix(0,-1,1,0,-1.5e-6,47.999998)">
      <stop
         style="stop-color:#66c6da;stop-opacity:1"
         id="stop7" />
      <stop
         offset="1"
         style="stop-color:#76ccde;stop-opacity:1"
         id="stop9" />
    </linearGradient>
  </defs>
  <path
     inkscape:connector-curvature="0"
     id="path21"
     style="fill:url(#linearGradient3764);fill-opacity:1"
     d="M 24,1 C 21.73,1 19.538,1.334 17.467,1.947 19.001,3 16.217,3.967 14.262,3.162 6.429,6.829 1,14.779 1,24 1,31.505 4.595,38.169 10.156,42.367 16,45 32,45 39.84,40.668 c 2.366,-2.249 4.253,-4.995 5.494,-8.07 0,-10e-4 0,-10e-4 0,-0.002 0.234,-1.595 0.667,-3.594 1.23,-4.15 l 0.002,0 C 46.848,27.008 47,25.523 47,24.003 c 0,-0.118 -0.006,-0.234 -0.008,-0.352 -10e-4,0 -10e-4,0 -0.002,0 C 45.998,23.002 46.434,22.469 46.836,21.303 46.651,19.726 46.309,18.198 45.822,16.735 43.996,15.997 37.999,9.001 34.722,3.655 31.519,1.963 27.872,1.001 23.997,1.001 Z" />
  <path
     inkscape:connector-curvature="0"
     id="path25"
     style="fill:#d1e9f3;fill-opacity:1"
     d="m 17.475,1.943 c -1.152,0.34 -2.267,0.767 -3.336,1.275 l 0.363,0.969 0.15,0.598 -0.621,0.346 -0.254,0.465 0.189,1.063 0.754,0.125 0.719,-0.688 0.625,-0.656 0.965,-0.25 1.227,-0.594 0.719,-0.875 1.031,-1.254 0.719,-0.189 -0.031,-0.275 -1.121,0 -2.098,-0.059 z m 8.582,0.443 C 26.002,2.406 24.53,2.409 24.53,2.409 l -0.379,0.098 0.5,0.598 0.531,-0.5 0.344,0.219 0.5,-0.25 c 0,0 0.09,-0.211 0.031,-0.188 z m 6,0.461 -0.375,0.004 -0.469,0.063 -0.406,0.25 -0.469,0.35 -0.277,0.5 0.434,0.438 L 30.87,4.483 31.026,4.229 30.651,3.915 30.87,3.727 30.901,3.575 31.37,3.262 c 0,0 0.609,0.008 0.656,0 0.051,-0.012 0.188,-0.191 0.188,-0.191 L 32.058,2.848 Z m 2.717,0.83 -0.498,0.299 -0.531,0.438 0.063,0.189 -0.277,0.031 0,0.004 -4.084,0.68 L 29.463,5.306 28.244,5.96 27.931,5.737 27.775,5.487 27.839,5.233 28.527,5.268 28.843,5.143 28.222,4.829 27.347,4.515 26.468,4.359 25.527,4.55 l -0.969,0.779 -0.436,0.439 -0.654,0.719 -0.25,0.031 -0.096,0.344 0.125,0.344 c 0,0 0.133,0.156 0.156,0.156 0.02,0 0.25,-0.125 0.25,-0.125 0,0 0.027,-0.117 0.156,-0.156 0.133,-0.039 0.25,-0.063 0.25,-0.063 l 0.188,0.375 0.225,0.313 0.09,0.25 c 0,0 0.363,-0.223 0.379,-0.25 0.008,-0.031 0.031,-0.41 0.031,-0.41 l 0.271,-0.188 c 0,0 0.074,-0.133 0.066,-0.156 C 25.297,6.932 25.121,6.733 25.121,6.733 L 24.965,6.67 25.028,6.354 c 0,0 0.125,-0.051 0.125,-0.094 0,-0.039 0.191,-0.189 0.191,-0.189 l 0.219,-0.275 0.156,-0.189 0.219,-0.156 0.254,0.189 0,0.125 -0.223,0.25 -0.066,0.25 0,0.344 0.191,0.156 0.344,-0.031 0.314,-0.063 0.279,0.154 -0.064,0.221 c 0,0 -0.195,0.188 -0.25,0.219 -0.059,0.031 -0.41,-0.063 -0.5,-0.031 -0.09,0.031 -0.314,0.316 -0.314,0.316 0,0 -0.023,0.249 0,0.313 0.012,0.023 -0.004,0.071 -0.012,0.129 l -0.025,0.018 -0.379,0.279 -0.025,0 -0.25,-0.094 c 0,0 -0.158,0.008 -0.225,0.066 -0.063,0.051 -0.12,0.102 -0.313,0.121 -0.191,0.02 -0.563,0 -0.598,0 l -0.219,0 0.031,-0.227 0.156,-0.25 -0.277,-0.223 c 0,0 -0.184,0.23 -0.191,0.281 -0.004,0.055 0.125,0.279 0.125,0.279 0,0 -0.059,0.182 -0.09,0.221 -0.035,0.039 -0.313,0.125 -0.313,0.125 L 22.859,8.367 c 0,0 -0.18,-0.038 -0.156,0.064 0.027,0.102 0.225,0.195 0.225,0.281 0,0.082 -0.125,0.275 -0.125,0.275 l -0.156,0.189 -0.25,0.254 -0.344,0.09 c 0,0 -0.251,0.07 -0.314,0.094 -0.066,0.023 -0.254,0.066 -0.254,0.066 l -0.25,0.031 -0.156,0.223 0.281,0.191 0.189,0.309 c 0,0 0.119,0.223 0.154,0.223 0.031,0 0.092,0.219 0.092,0.219 l -0.189,0.25 -0.094,0 -0.656,0.125 -0.125,-0.281 -0.434,0.438 -0.191,0.721 0,0.598 1.348,0.185 0.6,-1.064 0.529,-0.652 0.967,-0.156 0.219,-0.188 1.098,1.281 0.121,0.438 0.313,-0.156 -0.09,-0.375 0.188,0 -0.125,-0.254 -1.063,-1 0.094,-0.188 0.344,-0.031 0.75,0.75 0.375,0.441 0,0.688 0.191,0.125 0.375,0.375 0.277,-0.094 -0.152,-0.566 0.094,-0.344 0.188,-0.219 0.439,0.156 0.156,0.063 -0.031,-0.5 0.25,-0.469 0.156,-0.689 0.563,0.096 0.094,0.313 0.219,0.156 0.254,-0.219 -0.156,-0.346 0.656,0 -0.223,0.375 0.438,0.375 0.375,0.189 0.219,0.438 -0.5,0.121 -0.719,-0.156 -0.621,0 -0.598,0.316 -0.125,0.188 -0.434,0.094 0.188,0.469 0.344,0.406 0.625,-0.219 0.156,0.277 0.277,-0.219 0.375,0.063 0.035,0.41 -0.125,0.777 -10.638,2.305 -0.031,1.625 6.628,11.876 0.035,0.471 0.566,0.75 0.063,0.594 0.094,0.688 0.346,-0.344 0.875,-0.09 0.529,0 0.971,-1.5 0.063,-0.594 2.126,-6.689 1.064,-1.313 0.41,-0.406 0.15,-0.531 0.254,-0.469 0.064,-0.691 -0.594,0 -0.281,0.281 -0.564,-0.156 -0.344,-0.563 -0.281,-0.563 -0.654,-0.5 -0.152,-0.813 -0.281,-0.475 0.375,-0.376 0.375,0.688 0.41,0.75 0.434,0.723 0.602,0.6 0.535,-0.5 0.594,-0.156 0.434,-0.531 0.6,-0.344 0.344,-0.594 0.031,-0.5 -0.281,-0.316 -0.375,-0.438 -0.25,0.154 -0.156,0.254 -0.406,-0.188 -0.125,-0.313 -0.281,-0.41 -0.434,-0.406 0,-0.813 0.277,0.531 0.344,0.535 0.598,0.344 0.406,-0.094 0.25,0.281 1.785,-0.035 -0.035,0.035 0.566,0.5 0.406,0.563 0.125,0.277 0.275,0 0.096,-0.311 0.094,0.467 0.156,0.844 0.34,0.813 0.189,0.688 0.277,0.656 0.219,0.277 0.314,-0.188 0.094,-0.314 0.125,-0.775 -0.035,-0.689 0.254,-0.316 c 0,0 0.265,-0.359 0.313,-0.375 0.043,-0.012 0.621,-0.65 0.621,-0.65 l 0.281,-0.35 0.313,-0.188 0.375,-0.219 0.156,0 0.063,0.344 0.156,0.406 0.5,0.652 0,0.25 0.094,0.281 0.344,-0.156 -0.033,-0.375 0.313,0.066 0.066,0.344 -0.035,0.531 0.094,0.375 0.281,0.064 0.09,-0.314 0.344,0.219 0.066,0.316 0.309,0.469 0.316,0.344 0.219,0.191 0.535,-0.469 0.219,-0.441 -0.094,-0.5 -0.09,-0.656 -0.604,-0.563 -0.09,-0.566 0.25,-0.398 c 0,0 0.16,-0.32 0.316,-0.156 0.148,0.168 0.223,0.188 0.152,0.375 -0.063,0.184 -0.188,0.598 -0.188,0.598 l 0.375,0.156 0.156,-0.531 -0.156,-0.379 0.375,-0.156 0.441,-0.221 C 43.97,11.116 39.966,6.432 34.781,3.672 Z M 29.461,5.306 29.457,5.312 33.547,4.617 33.52,4.461 33.204,4.023 32.55,3.96 c 0,0 0.154,0.664 0.154,0.75 0,0.082 -0.438,0.025 -0.438,0.025 l -0.75,0.035 c 0,0 -1.086,0.25 -1.219,0.25 -0.133,0 -0.762,0.262 -0.813,0.281 L 29.461,5.305 Z M 11.773,4.523 c -0.6,0.377 -1.182,0.78 -1.742,1.209 l 0.154,0.068 0.531,0.465 0.525,0.125 0.191,-0.719 0.035,-0.438 0.621,0.094 c 0,0 -0.191,0.313 -0.094,0.313 0.098,0 0.469,-0.406 0.469,-0.406 L 11.772,4.523 Z m 6.937,0.875 -0.121,0.406 c 0.449,0.348 0.621,0.344 0.621,0.344 L 19.735,6.023 20.085,5.679 19.86,5.398 Z M 9.843,6.171 c 0,0 -0.432,0.25 -0.85,0.406 C 8.991,6.579 8.989,6.579 8.987,6.581 8.896,6.66 8.804,6.737 8.714,6.817 8.661,6.937 8.685,7.046 8.685,7.046 L 8.65,7.89 7.962,8.453 7.528,9.109 c 0,0 -0.281,-0.188 -0.281,-0.313 0,-0.125 -0.063,-0.469 -0.063,-0.469 L 7.176,8.321 C 6.746,8.783 6.335,9.263 5.944,9.759 l 0.416,0.545 0.281,0.434 c 0,0 -0.249,0.844 -0.313,1 -0.063,0.156 -0.25,-0.313 -0.25,-0.313 l -0.156,-0.814 -0.531,0.225 -0.41,0.965 0.094,-0.811 0.02,-0.086 c -0.858,1.237 -1.6,2.56 -2.205,3.957 l 0.393,0 1.125,-0.25 0.406,0.531 -0.063,0.625 0.469,0.406 0.063,-0.441 c 0,0 -0.023,-0.719 -0.094,-0.906 -0.063,-0.188 0.566,-0.625 0.566,-0.625 L 6.251,13.588 6.849,12.861 7.13,12.298 8.068,11.802 8.693,11.111 c 0,0 0.934,-0.148 1.121,-0.254 0.191,-0.09 0.066,-0.434 -0.125,-0.75 C 9.498,9.794 9.783,9.482 9.783,9.482 l 0.719,-0.434 0.625,0.121 0.066,0.754 c 0,0 0.59,0.563 0.781,0.465 0.188,-0.09 0.271,-0.406 0.271,-0.406 l -0.313,-0.813 0.191,-0.811 -0.844,0.121 0,-1.375 L 11.025,7.358 10.369,7.389 10.279,6.701 9.841,6.17 Z m 11.643,1.01 -0.25,0.219 c -0.066,0.305 -0.15,0.621 -0.15,0.621 l 0.469,0.223 0.063,0.277 -0.25,0.254 -0.219,0.375 0.152,0.156 0.563,-0.094 0.5,-0.219 L 22.087,8.618 21.989,7.962 21.645,7.587 21.487,7.181 Z M 20.711,8.365 20.43,8.834 20.805,8.99 20.961,8.709 Z m 10.938,1.848 c 0.137,-0.043 0.375,0.154 0.375,0.154 l -0.25,0.221 0.09,0.313 0.281,0.75 0.281,0.469 0.375,0.594 -0.406,0.191 -0.531,-0.344 -0.223,-0.656 c 0,0 -0.303,-0.406 -0.436,-0.469 -0.137,-0.066 -0.254,-0.281 -0.254,-0.281 l 0.125,-0.531 c 0,0 0.431,-0.359 0.564,-0.406 l 0.008,-0.004 z m -7.906,1.188 -0.375,0.719 0.281,0.281 0.25,-0.223 0.031,-0.309 -0.188,-0.469 z m -19.226,5.405 0,0.004 -0.309,0.156 0.531,0.279 0.594,0.121 0.344,0.469 0.406,-0.25 -0.063,-0.279 -0.689,-0.5 z M 3.542,17.216 2.978,17.306 2.13,18.15 1.767,18.103 C 1.714,18.304 1.666,18.507 1.619,18.71 l 0.58,0.277 1.094,0.598 0.156,0.725 0.875,0.84 0.5,-0.375 0.41,0.316 -0.066,-0.725 -0.777,0.191 -0.254,-0.906 -0.09,-0.41 -0.688,-0.621 0,-0.438 0.531,-0.566 z m 2.668,2.684 -0.006,0.004 -0.816,0.441 -0.09,0.9 -0.188,1 -0.563,0.75 0.029,1.125 0.467,1.156 0.5,1.406 1.313,1.313 0.063,0.75 0.094,3.385 0.469,1.9 c 0,0 0.285,1.103 0.223,1.189 -0.066,0.09 0.375,0.91 0.375,0.91 l 0.875,1.375 1.221,0.525 -0.5,-0.598 -0.25,-0.688 0.25,-0.719 L 9.02,35.68 c 0,0 0.434,-0.285 0.5,-0.375 0.066,-0.09 -0.09,-0.469 -0.09,-0.469 l -0.191,-0.467 0.496,-0.654 0.781,-0.189 0.125,-0.598 -0.469,-0.219 0.188,-0.5 0.75,-0.094 0.656,-1.598 0.469,-1.094 0.977,-0.471 c 0,0 0.309,-0.928 0.309,-1.064 0,-0.129 0.094,-1.531 0.094,-1.531 l 0.75,-1.023 0.094,-0.691 -0.563,-0.344 -0.469,-0.566 -0.852,0.066 -1.344,-0.781 -0.27,-0.656 c 0,0 -0.48,-0.813 -0.566,-0.813 -0.086,0 -0.652,0.035 -0.652,0.035 L 9.212,21.053 8.868,20.397 7.524,20.116 7.086,19.897 l -0.875,0 z m 36.438,0.492 c 0.113,0.129 0.813,2.219 0.906,2.219 0.09,0 0.625,0.066 0.625,0.066 l -0.281,-0.844 z m -3.594,0.066 -0.316,0.406 0.156,0.598 0.344,-0.375 -0.063,-0.473 z m 7.787,0.885 -1.17,0.646 c 0,0.094 -0.725,0.691 -0.725,0.691 l 0.191,0.625 0.41,0.465 0.273,0.688 1.17,-0.76 c -0.01,-0.796 -0.061,-1.581 -0.15,-2.355 z m -4.297,0.271 -0.436,0.066 1.996,3 0.531,0.594 1.313,0.064 0.814,0.254 -0.879,-0.625 -1.25,-0.346 -0.314,-1.154 -0.688,-0.564 -1.094,-1.281 0.006,-0.008 z m 4.018,6.861 c -0.05,0.017 -0.115,0.036 -0.119,0.051 -0.02,0.086 -0.563,0.375 -0.563,0.375 -0.113,0 -0.465,0.656 -0.465,0.656 l -0.066,2.063 -0.121,0.75 0.129,0.168 c 0.52,-1.3 0.928,-2.658 1.205,-4.063 z m -34.994,7.486 -0.215,0.152 -0.094,0.031 0.5,0.25 -0.191,-0.434 z m -0.848,0.184 0.002,0.004 0.002,-0.004 z m 0.002,0.004 -0.217,0.496 0.438,-0.094 z m 1.502,4.121 -0.469,0.719 -0.875,0.406 0.5,0.625 -0.75,0.375 -0.473,-0.023 c 3.851,2.907 8.645,4.631 13.842,4.631 6.137,0 11.708,-2.408 15.832,-6.324 l -2.549,0.096 -3.064,0.621 c 0,0 -1.477,0.793 -1.656,0.754 -0.18,-0.043 0.625,-1.031 0.625,-1.031 l -1.439,0.09 -0.904,-0.75 -0.91,0.621 c 0,0 -1.215,0.096 -1.527,0.096 -0.316,0 -0.723,0.563 -0.723,0.563 l -2.469,-0.09 -4.25,0.188 -1.121,0.965 -0.281,0.035 -3.215,-0.223 -2.219,0.223 -0.781,-0.379 0.031,-0.063 c 0,0 -0.652,-1.32 -0.652,-1.5 0,-0.176 -0.5,-0.621 -0.5,-0.621 l -0.002,-0.002 z" />
  <g
     id="g29">
    <g
       id="g31">
      <g
         transform="translate(1,1)"
         id="g33">
        <g
           style="opacity:0.1"
           id="g35">
          <!-- color: #5fad38 -->
        </g>
      </g>
    </g>
  </g>
  <g
     id="g37">
    <g
       id="g39">
      <!-- color: #5fad38 -->
    </g>
  </g>
  <path
     d="m 24,12 c -4,0 -6,1 -6,2.75 l 0,2.25 6,0 0,1 -8.25,0 C 13.811,18 12,20 12,24 c 0,4 1.811,6 3.75,6 l 1.25,0 0,-3.5 c 0,-1.662 1.338,-3 3,-3 l 7,0 c 1.662,0 3,-1.338 3,-3 l 0,-5.75 C 30,13 28,12 24,12 Z"
     style="fill:#7bb54b;opacity:1;fill-opacity:1;stroke:none"
     id="path45" />
  <path
     d="m 23.997,36 c 4,0 6,-1 6,-2.75 l 0,-2.25 -6,0 0,-1 8.25,0 C 34.186,30 36,28 36,24 36,20 34.186,18 32.247,18 l -1.25,0 0,3.5 c 0,1.662 -1.338,3 -3,3 l -7,0 c -1.662,0 -3,1.338 -3,3 l 0,5.75 c 0,1.75 2,2.75 6,2.75 z"
     style="fill:#7bb54b;opacity:1;fill-opacity:1;stroke:none"
     id="path47" />
  <circle
     cx="21"
     cy="15"
     r="1"
     style="fill:#4f5838;opacity:1;fill-opacity:1;stroke:none"
     id="circle49" />
  <circle
     cx="27"
     cy="33"
     r="1"
     style="fill:#4f5838;opacity:1;fill-opacity:1;stroke:none"
     id="circle51" />
  <path
     d="M 18.297,22 14,24 l 4.297,1.998 15.14,0 c 0,0 0.562,-0.324 0.562,-1.998 0,-1.615 -0.633,-2 -0.633,-2 l -15.07,0 z"
     style="fill:#e56767;fill-opacity:1;stroke:none;fill-rule:nonzero"
     id="path55" />
</svg>
