<?xml version="1.0" encoding="UTF-8" standalone="no"?>
<svg
   xmlns:dc="http://purl.org/dc/elements/1.1/"
   xmlns:cc="http://creativecommons.org/ns#"
   xmlns:rdf="http://www.w3.org/1999/02/22-rdf-syntax-ns#"
   xmlns:svg="http://www.w3.org/2000/svg"
   xmlns="http://www.w3.org/2000/svg"
   xmlns:sodipodi="http://sodipodi.sourceforge.net/DTD/sodipodi-0.dtd"
   xmlns:inkscape="http://www.inkscape.org/namespaces/inkscape"
   viewBox="0 0 48 48"
   id="svg2"
   version="1.1"
   inkscape:version="0.91 r13725"
   sodipodi:docname="eric.svg">
  <metadata
     id="metadata55">
    <rdf:RDF>
      <cc:Work
         rdf:about="">
        <dc:format>image/svg+xml</dc:format>
        <dc:type
           rdf:resource="http://purl.org/dc/dcmitype/StillImage" />
        <dc:title></dc:title>
      </cc:Work>
    </rdf:RDF>
  </metadata>
  <sodipodi:namedview
     pagecolor="#ffffff"
     bordercolor="#666666"
     borderopacity="1"
     objecttolerance="10"
     gridtolerance="10"
     guidetolerance="10"
     inkscape:pageopacity="0"
     inkscape:pageshadow="2"
     inkscape:window-width="1321"
     inkscape:window-height="744"
     id="namedview53"
     showgrid="false"
     inkscape:zoom="11.984375"
     inkscape:cx="21.468927"
     inkscape:cy="24"
     inkscape:window-x="39"
     inkscape:window-y="24"
     inkscape:window-maximized="1"
     inkscape:current-layer="svg2" />
  <defs
     id="defs4">
    <linearGradient
       id="linearGradient3764"
       x1="1"
       x2="47"
       gradientUnits="userSpaceOnUse"
       gradientTransform="matrix(0,-1,1,0,-1.5e-6,47.999998)">
      <stop
         style="stop-color:#c1e0a6;stop-opacity:1"
         id="stop7" />
      <stop
         offset="1"
         style="stop-color:#cae5b3;stop-opacity:1"
         id="stop9" />
    </linearGradient>
  </defs>
  <g
     id="g19">
    <path
       d="m 24 1 c 12.703 0 23 10.297 23 23 c 0 12.703 -10.297 23 -23 23 -12.703 0 -23 -10.297 -23 -23 0 -12.703 10.297 -23 23 -23 z"
       style="fill:url(#linearGradient3764);fill-opacity:1"
       id="path21" />
  </g>
  <g
     id="g23">
    <g
       id="g25">
      <g
         transform="translate(1,1)"
         id="g27">
        <g
           style="opacity:0.1"
           id="g29">
          <!-- color: #b6b6b6 -->
        </g>
      </g>
    </g>
  </g>
  <g
     transform="translate(-1.8259104e-4,0)"
     id="g31">
    <g
       id="g33">
      <!-- color: #b6b6b6 -->
    </g>
  </g>
  <path
     d="m 24,12 c -4,0 -6,1 -6,2.75 l 0,2.25 6,0 0,1 -8.25,0 C 13.811,18 12,20 12,24 c 0,4 1.811,6 3.75,6 l 1.25,0 0,-3.5 c 0,-1.662 1.338,-3 3,-3 l 7,0 c 1.662,0 3,-1.338 3,-3 l 0,-5.75 C 30,13 28,12 24,12 Z"
     style="fill:#7bb54b;opacity:1;fill-opacity:1;stroke:none"
     id="path41" />
  <path
     d="m 23.997,36 c 4,0 6,-1 6,-2.75 l 0,-2.25 -6,0 0,-1 8.25,0 C 34.186,30 36,28 36,24 36,20 34.186,18 32.247,18 l -1.25,0 0,3.5 c 0,1.662 -1.338,3 -3,3 l -7,0 c -1.662,0 -3,1.338 -3,3 l 0,5.75 c 0,1.75 2,2.75 6,2.75 z"
     style="fill:#7bb54b;opacity:1;fill-opacity:1;stroke:none"
     id="path43" />
  <circle
     cx="21"
     cy="15"
     r="1"
     style="fill:#4f5838;opacity:1;fill-opacity:1;stroke:none"
     id="circle45" />
  <circle
     cx="27"
     cy="33"
     r="1"
     style="fill:#4f5838;opacity:1;fill-opacity:1;stroke:none"
     id="circle47" />
  <path
     d="m 18.297 22 -4.297 2 4.297 1.998 15.14 0 c 0 0 0.562 -0.324 0.562 -1.998 c 0 -1.615 -0.633 -2 -0.633 -2 l -15.07 0 z"
     style="fill:#e56767;fill-opacity:1;stroke:none;fill-rule:nonzero"
     id="path51" />
</svg>
