<?xml version="1.0" encoding="UTF-8" standalone="no"?>
<svg
   xmlns:dc="http://purl.org/dc/elements/1.1/"
   xmlns:cc="http://creativecommons.org/ns#"
   xmlns:rdf="http://www.w3.org/1999/02/22-rdf-syntax-ns#"
   xmlns:svg="http://www.w3.org/2000/svg"
   xmlns="http://www.w3.org/2000/svg"
   xmlns:sodipodi="http://sodipodi.sourceforge.net/DTD/sodipodi-0.dtd"
   xmlns:inkscape="http://www.inkscape.org/namespaces/inkscape"
   viewBox="0 0 48 48"
   id="svg2"
   version="1.1"
   inkscape:version="0.91 r13725"
   sodipodi:docname="furiusisomount.svg">
  <metadata
     id="metadata74">
    <rdf:RDF>
      <cc:Work
         rdf:about="">
        <dc:format>image/svg+xml</dc:format>
        <dc:type
           rdf:resource="http://purl.org/dc/dcmitype/StillImage" />
        <dc:title></dc:title>
      </cc:Work>
    </rdf:RDF>
  </metadata>
  <sodipodi:namedview
     pagecolor="#ffffff"
     bordercolor="#666666"
     borderopacity="1"
     objecttolerance="10"
     gridtolerance="10"
     guidetolerance="10"
     inkscape:pageopacity="0"
     inkscape:pageshadow="2"
     inkscape:window-width="640"
     inkscape:window-height="480"
     id="namedview72"
     showgrid="false"
     inkscape:zoom="2.4444902"
     inkscape:cx="26.94178"
     inkscape:cy="26.466378"
     inkscape:window-x="49"
     inkscape:window-y="34"
     inkscape:window-maximized="0"
     inkscape:current-layer="svg2" />
  <defs
     id="defs4">
    <linearGradient
       id="linearGradient3764"
       x1="1"
       x2="47"
       gradientUnits="userSpaceOnUse"
       gradientTransform="matrix(0,-1,1,0,-1.5e-6,47.999998)">
      <stop
         style="stop-color:#3591c1;stop-opacity:1"
         id="stop7" />
      <stop
         offset="1"
         style="stop-color:#409bcb;stop-opacity:1"
         id="stop9" />
    </linearGradient>
    <linearGradient
       id="linear0"
       gradientUnits="userSpaceOnUse"
       y1="279.1"
       x2="0"
       y2="268.33"
       gradientTransform="matrix(2.797157,0,0,2.797157,-332.97333,-741.65338)">
      <stop
         style="stop-color:#c8c8c8;stop-opacity:1"
         id="stop12" />
      <stop
         offset="1"
         style="stop-color:#eaeaea;stop-opacity:1"
         id="stop14" />
    </linearGradient>
  </defs>
  <g
     id="g24">
    <path
       d="m 24 1 c 12.703 0 23 10.297 23 23 c 0 12.703 -10.297 23 -23 23 -12.703 0 -23 -10.297 -23 -23 0 -12.703 10.297 -23 23 -23 z"
       style="fill:url(#linearGradient3764);fill-opacity:1"
       id="path26" />
  </g>
  <g
     id="g40">
    <g
       id="g42">
      <!-- color: #409bcb -->
      <g
         id="g44">
        <path
           d="m 24,9 c 8.281,0 14.996,6.715 14.996,15 0,8.281 -6.715,14.996 -14.996,14.996 C 15.715,38.996 9,32.281 9,24 9,15.715 15.715,9 24,9 m 0,0"
           style="fill:url(#linear0);stroke:none;fill-rule:evenodd"
           id="path46" />
        <path
           d="m 34.527 34.746 c 0.691 -0.691 1.313 -1.457 1.863 -2.27 0.547 -0.809 1.023 -1.688 1.41 -2.602 0.387 -0.914 0.68 -1.871 0.883 -2.867 0.199 -0.996 0.309 -2.027 0.309 -3.078 l -10.699 0 c 0 0.633 -0.129 1.242 -0.359 1.789 -0.227 0.547 -0.563 1.039 -0.977 1.453 l 7.574 7.574 m -0.004 0"
           style="fill:#fff;fill-opacity:0.498;stroke:none;fill-rule:nonzero"
           id="path48" />
        <path
           d="m 13.496,13.289 c -0.688,0.688 -1.309,1.449 -1.855,2.262 -0.547,0.813 -1.02,1.684 -1.402,2.594 -0.387,0.91 -0.68,1.863 -0.879,2.852 -0.203,0.992 -0.309,2.02 -0.309,3.07 l 10.664,0 c 0,-0.633 0.125,-1.238 0.359,-1.781 0.23,-0.547 0.563,-1.039 0.973,-1.449 L 13.508,13.294 M 13.496,13.29"
           style="fill:#fff;fill-opacity:0.498;stroke:none;fill-rule:nonzero"
           id="path50" />
        <path
           d="m 28.29 24 c 0 2.367 -1.918 4.285 -4.285 4.285 -2.367 0 -4.285 -1.918 -4.285 -4.285 0 -2.367 1.918 -4.285 4.285 -4.285 2.367 0 4.285 1.918 4.285 4.285 m 0 0"
           style="fill:#999;fill-opacity:0.498;stroke:none;fill-rule:nonzero"
           id="path52" />
        <path
           d="m 20.12 25.762 -9.777 4.445 c 0.75 1.652 1.793 3.133 3.059 4.398 l 7.563 -7.566 c -0.359 -0.363 -0.633 -0.801 -0.844 -1.273 m 0 -0.004"
           style="fill:#fff;fill-opacity:0.498;stroke:none;fill-rule:nonzero"
           id="path54" />
        <path
           d="m 34.602,13.398 -7.566,7.562 c 0.363,0.363 0.633,0.801 0.848,1.273 l 9.777,-4.445 C 36.907,16.14 35.868,14.659 34.602,13.393 m 0,0.004"
           style="fill:#fff;fill-opacity:0.498;stroke:none;fill-rule:nonzero"
           id="path56" />
        <path
           d="m 39,24 c 0,1.344 -0.18,2.68 -0.535,3.973 L 24,24 m 15,0"
           style="fill:#999;fill-opacity:0.498;stroke:none;fill-rule:nonzero"
           id="path58" />
        <path
           d="M 9,24 C 9,22.656 9.18,21.32 9.535,20.027 L 24,24 M 9,24"
           style="fill:#999;fill-opacity:0.498;stroke:none;fill-rule:nonzero"
           id="path60" />
        <path
           d="m 24,9 c 1.344,0 2.68,0.18 3.973,0.535 L 24,24 M 24,9"
           style="fill:#ff8dff;fill-opacity:0.498;stroke:none;fill-rule:nonzero"
           id="path62" />
        <path
           d="m 24,39 c -1.344,0 -2.68,-0.18 -3.973,-0.535 L 24,24 m 0,15"
           style="fill:#ff8dff;fill-opacity:0.498;stroke:none;fill-rule:nonzero"
           id="path64" />
        <path
           d="m 24,21.859 c 0.59,0 1.129,0.238 1.516,0.621 0.387,0.387 0.625,0.926 0.625,1.52 0,0.59 -0.238,1.129 -0.625,1.516 -0.387,0.387 -0.926,0.625 -1.516,0.625 -0.594,0 -1.133,-0.238 -1.52,-0.625 C 22.097,25.129 21.859,24.59 21.859,24 c 0,-0.594 0.238,-1.133 0.621,-1.52 0.387,-0.383 0.926,-0.621 1.52,-0.621 m 0,0"
           style="fill:#fff;fill-opacity:0.498;stroke:none;fill-rule:nonzero"
           id="path66" />
      </g>
    </g>
  </g>
</svg>
