<?xml version="1.0" encoding="UTF-8" standalone="no"?>
<svg
   xmlns:dc="http://purl.org/dc/elements/1.1/"
   xmlns:cc="http://creativecommons.org/ns#"
   xmlns:rdf="http://www.w3.org/1999/02/22-rdf-syntax-ns#"
   xmlns:svg="http://www.w3.org/2000/svg"
   xmlns="http://www.w3.org/2000/svg"
   xmlns:sodipodi="http://sodipodi.sourceforge.net/DTD/sodipodi-0.dtd"
   xmlns:inkscape="http://www.inkscape.org/namespaces/inkscape"
   viewBox="0 0 48 48"
   id="svg2"
   version="1.1"
   inkscape:version="0.91 r13725"
   sodipodi:docname="gnome-multi-writer.svg">
  <metadata
     id="metadata47">
    <rdf:RDF>
      <cc:Work
         rdf:about="">
        <dc:format>image/svg+xml</dc:format>
        <dc:type
           rdf:resource="http://purl.org/dc/dcmitype/StillImage" />
        <dc:title></dc:title>
      </cc:Work>
    </rdf:RDF>
  </metadata>
  <sodipodi:namedview
     pagecolor="#ffffff"
     bordercolor="#666666"
     borderopacity="1"
     objecttolerance="10"
     gridtolerance="10"
     guidetolerance="10"
     inkscape:pageopacity="0"
     inkscape:pageshadow="2"
     inkscape:window-width="1321"
     inkscape:window-height="744"
     id="namedview45"
     showgrid="false"
     showguides="false"
     inkscape:zoom="11.984375"
     inkscape:cx="10.079096"
     inkscape:cy="24"
     inkscape:window-x="39"
     inkscape:window-y="24"
     inkscape:window-maximized="1"
     inkscape:current-layer="svg2" />
  <defs
     id="defs4">
    <linearGradient
       x2="-24"
       x1="-27"
       gradientUnits="userSpaceOnUse"
       id="linearGradient3357">
      <stop
         style="stop-color:#e25543;stop-opacity:1"
         id="stop7" />
      <stop
         offset="1"
         style="stop-color:#e96b5a;stop-opacity:1"
         id="stop9" />
    </linearGradient>
  </defs>
  <path
     d="m -24 13 a 1.5 2 0 1 1 -3 0 1.5 2 0 1 1 3 0 z"
     style="fill:url(#linearGradient3357);fill-opacity:1;stroke:none"
     id="path19"
     transform="matrix(0,-15.333333,11.5,0,-125.5,-366.99999)" />
  <g
     transform="translate(-8.333768,-0.49934811)"
     id="g31">
    <g
       id="g33">
      <!-- color: #004c8c -->
      <g
         id="g35">
        <path
           d="M 18.813,11 C 17.803,11 17,11.659 17,12.485 l 0,20.03 C 17,33.34 17.809,34 18.813,34 l 10.374,0 C 30.199,34 31,33.341 31,32.515 l 0,-20.03 C 31,11.66 30.195,11 29.187,11"
           style="fill:#f9f9f9;fill-opacity:1;fill-rule:nonzero;stroke:none"
           id="path37"
           inkscape:connector-curvature="0" />
        <path
           d="M 19,33.934 19,38 29,38 29,33.934 M 21.004,35 23,35 l 0,2 -1.996,0 M 25,35 l 2,0 0,2 -2,0"
           style="fill:#f9f9f9;fill-opacity:1;fill-rule:nonzero;stroke:none"
           id="path39"
           inkscape:connector-curvature="0" />
      </g>
    </g>
  </g>
  <g
     id="g4175"
     transform="translate(9.095176,-0.49934811)">
    <g
       id="g4177">
      <!-- color: #004c8c -->
      <g
         id="g4179">
        <path
           inkscape:connector-curvature="0"
           id="path4181"
           style="fill:#f9f9f9;fill-opacity:1;fill-rule:nonzero;stroke:none"
           d="M 18.813,11 C 17.803,11 17,11.659 17,12.485 l 0,20.03 C 17,33.34 17.809,34 18.813,34 l 10.374,0 C 30.199,34 31,33.341 31,32.515 l 0,-20.03 C 31,11.66 30.195,11 29.187,11" />
        <path
           inkscape:connector-curvature="0"
           id="path4183"
           style="fill:#f9f9f9;fill-opacity:1;fill-rule:nonzero;stroke:none"
           d="M 19,33.934 19,38 29,38 29,33.934 M 21.004,35 23,35 l 0,2 -1.996,0 M 25,35 l 2,0 0,2 -2,0" />
      </g>
    </g>
  </g>
</svg>
