<?xml version="1.0" encoding="UTF-8" standalone="no"?>
<svg
   xmlns:dc="http://purl.org/dc/elements/1.1/"
   xmlns:cc="http://creativecommons.org/ns#"
   xmlns:rdf="http://www.w3.org/1999/02/22-rdf-syntax-ns#"
   xmlns:svg="http://www.w3.org/2000/svg"
   xmlns="http://www.w3.org/2000/svg"
   xmlns:sodipodi="http://sodipodi.sourceforge.net/DTD/sodipodi-0.dtd"
   xmlns:inkscape="http://www.inkscape.org/namespaces/inkscape"
   viewBox="0 0 48 48"
   id="svg2"
   version="1.1"
   inkscape:version="0.91 r13725"
   sodipodi:docname="gnome-power-manager.svg">
  <metadata
     id="metadata41">
    <rdf:RDF>
      <cc:Work
         rdf:about="">
        <dc:format>image/svg+xml</dc:format>
        <dc:type
           rdf:resource="http://purl.org/dc/dcmitype/StillImage" />
        <dc:title></dc:title>
      </cc:Work>
    </rdf:RDF>
  </metadata>
  <sodipodi:namedview
     pagecolor="#ffffff"
     bordercolor="#666666"
     borderopacity="1"
     objecttolerance="10"
     gridtolerance="10"
     guidetolerance="10"
     inkscape:pageopacity="0"
     inkscape:pageshadow="2"
     inkscape:window-width="1321"
     inkscape:window-height="744"
     id="namedview39"
     showgrid="false"
     inkscape:zoom="11.984375"
     inkscape:cx="22.539765"
     inkscape:cy="24"
     inkscape:window-x="39"
     inkscape:window-y="24"
     inkscape:window-maximized="1"
     inkscape:current-layer="svg2" />
  <defs
     id="defs4">
    <linearGradient
       id="linearGradient3764"
       x1="1"
       x2="47"
       gradientUnits="userSpaceOnUse"
       gradientTransform="matrix(0,-1,1,0,-1.5e-6,47.999998)">
      <stop
         style="stop-color:#46baa7;stop-opacity:1"
         id="stop7" />
      <stop
         offset="1"
         style="stop-color:#55bfae;stop-opacity:1"
         id="stop9" />
    </linearGradient>
  </defs>
  <g
     id="g19">
    <path
       d="m 24 1 c 12.703 0 23 10.297 23 23 c 0 12.703 -10.297 23 -23 23 -12.703 0 -23 -10.297 -23 -23 0 -12.703 10.297 -23 23 -23 z"
       style="fill:url(#linearGradient3764);fill-opacity:1"
       id="path21" />
  </g>
  <path
     inkscape:connector-curvature="0"
     id="path33"
     style="color:#000000;display:inline;visibility:visible;fill:#f9f9f9;fill-opacity:1;stroke:none"
     d="m 16.873228,9.9905353 c -1.555512,0 -2.873622,1.3216537 -2.873622,2.8807087 l 0,24.250393 c 0,1.555512 1.31811,2.880709 2.873622,2.880709 l 14.364567,0 c 1.555511,0 2.760236,-1.321654 2.760236,-2.880709 l 0,-24.250393 c 0,-1.555512 -1.204725,-2.8807087 -2.760236,-2.8807087 l -14.364567,0 z m 0,1.9948817 14.364567,0 c 0.435826,0 0.775984,0.354331 0.775984,0.885827 l 0,24.250393 c 0,0.531496 -0.340158,0.885827 -0.775984,0.885827 l -14.364567,0 c -0.435827,0 -0.882283,-0.354331 -0.882283,-0.885827 l 0,-24.250393 c 0,-0.531496 0.45,-0.885827 0.882283,-0.885827 z" />
  <rect
     id="rect35"
     style="fill:#f9f9f9"
     rx="0.99921256"
     y="6.9999843"
     x="18.999212"
     height="4.1102362"
     width="9.9992123" />
  <path
     inkscape:connector-curvature="0"
     id="path37"
     style="fill:#e3e3d6"
     d="m 17.000787,37.001165 13.999606,0 0,-17.000787 -13.999606,9.999212 z" />
</svg>
