<?xml version="1.0" encoding="UTF-8" standalone="no"?>
<svg
   xmlns:dc="http://purl.org/dc/elements/1.1/"
   xmlns:cc="http://creativecommons.org/ns#"
   xmlns:rdf="http://www.w3.org/1999/02/22-rdf-syntax-ns#"
   xmlns:svg="http://www.w3.org/2000/svg"
   xmlns="http://www.w3.org/2000/svg"
   xmlns:sodipodi="http://sodipodi.sourceforge.net/DTD/sodipodi-0.dtd"
   xmlns:inkscape="http://www.inkscape.org/namespaces/inkscape"
   viewBox="0 0 48 48"
   id="svg2"
   version="1.1"
   inkscape:version="0.91 r13725"
   sodipodi:docname="gpick.svg">
  <metadata
     id="metadata57">
    <rdf:RDF>
      <cc:Work
         rdf:about="">
        <dc:format>image/svg+xml</dc:format>
        <dc:type
           rdf:resource="http://purl.org/dc/dcmitype/StillImage" />
        <dc:title></dc:title>
      </cc:Work>
    </rdf:RDF>
  </metadata>
  <sodipodi:namedview
     pagecolor="#ffffff"
     bordercolor="#666666"
     borderopacity="1"
     objecttolerance="10"
     gridtolerance="10"
     guidetolerance="10"
     inkscape:pageopacity="0"
     inkscape:pageshadow="2"
     inkscape:window-width="1321"
     inkscape:window-height="744"
     id="namedview55"
     showgrid="false"
     inkscape:zoom="11.984375"
     inkscape:cx="21.468927"
     inkscape:cy="24"
     inkscape:window-x="39"
     inkscape:window-y="24"
     inkscape:window-maximized="1"
     inkscape:current-layer="svg2" />
  <defs
     id="defs4">
    <linearGradient
       id="linearGradient3764"
       x1="1"
       x2="47"
       gradientUnits="userSpaceOnUse"
       gradientTransform="matrix(0,-1,1,0,-1.5e-6,47.999998)">
      <stop
         style="stop-color:#e4e4e4;stop-opacity:1"
         id="stop7" />
      <stop
         offset="1"
         style="stop-color:#eee;stop-opacity:1"
         id="stop9" />
    </linearGradient>
  </defs>
  <g
     id="g19">
    <path
       d="m 24 1 c 12.703 0 23 10.297 23 23 c 0 12.703 -10.297 23 -23 23 -12.703 0 -23 -10.297 -23 -23 0 -12.703 10.297 -23 23 -23 z"
       style="fill:url(#linearGradient3764);fill-opacity:1"
       id="path21" />
  </g>
  <g
     transform="translate(-7.6486381e-5,0)"
     id="g35">
    <g
       id="g37">
      <!-- color: #eeeeee -->
      <g
         id="g39">
        <path
           d="m 32.902 27.1 c -1.969 1.234 -4.449 1.313 -6.492 0.207 -2.047 -1.105 -3.336 -3.23 -3.379 -5.551 -0.281 -5.247 5.308 -8.266 9.66 -5.879 2.043 1.102 3.336 3.227 3.379 5.551 0.043 2.324 -1.168 4.48 -3.168 5.672"
           style="fill:#86dd95;fill-opacity:1;stroke:none;fill-rule:nonzero"
           id="path41" />
        <path
           d="m 24.04 34.06 c -1.664 -1.621 -2.328 -4.02 -1.734 -6.262 0.59 -2.246 2.348 -4 4.594 -4.594 2.246 -0.594 4.641 0.07 6.262 1.734 1.664 1.625 2.328 4.02 1.734 6.262 -0.59 2.25 -2.344 4 -4.594 4.598 -2.246 0.59 -4.641 -0.074 -6.262 -1.738 m 0 0"
           style="fill:#f3f275;fill-opacity:1;stroke:none;fill-rule:nonzero"
           id="path43" />
        <path
           d="m 14.926 24.945 c 1.621 -1.664 4.01 -2.328 6.262 -1.734 2.246 0.59 4 2.344 4.594 4.594 0.59 2.246 -0.074 4.637 -1.738 6.262 -1.621 1.664 -4.01 2.328 -6.262 1.734 -2.246 -0.59 -4 -2.348 -4.594 -4.594 -0.59 -2.246 0.07 -4.641 1.738 -6.262 m 0 0"
           style="fill:#edb968;fill-opacity:1;stroke:none;fill-rule:nonzero"
           id="path45" />
        <path
           d="m 17.996 15.273 c -2.066 0.145 -4.02 1.297 -5.137 3.223 -1.781 3.082 -0.699 7.02 2.383 8.797 3.082 1.785 7.02 0.734 8.801 -2.348 -1.27 -2.082 -1.383 -4.718 -0.25 -6.691 c -1.335 -1.999 -3.521 -3.112 -5.8 -2.981"
           style="fill:#ed8e68;fill-opacity:1;stroke:none;fill-rule:nonzero"
           id="path47" />
        <path
           d="m 24.04 12.05 c -3.582 0 -6.449 2.887 -6.449 6.449 0 3.578 2.887 6.449 6.449 6.449 -1.855 -3.043 -0.895 -7.02 2.148 -8.867 1.055 -0.637 2.211 -0.941 3.359 -0.938 -1.133 -1.855 -3.176 -3.09 -5.508 -3.09 m 0 -0.004"
           style="fill:#b0c6de;fill-opacity:1;stroke:none;fill-rule:nonzero"
           id="path49" />
      </g>
    </g>
  </g>
</svg>
