<?xml version="1.0" encoding="UTF-8" standalone="no"?>
<svg
   xmlns:dc="http://purl.org/dc/elements/1.1/"
   xmlns:cc="http://creativecommons.org/ns#"
   xmlns:rdf="http://www.w3.org/1999/02/22-rdf-syntax-ns#"
   xmlns:svg="http://www.w3.org/2000/svg"
   xmlns="http://www.w3.org/2000/svg"
   xmlns:sodipodi="http://sodipodi.sourceforge.net/DTD/sodipodi-0.dtd"
   xmlns:inkscape="http://www.inkscape.org/namespaces/inkscape"
   viewBox="0 0 48 48"
   id="svg2"
   version="1.1"
   inkscape:version="0.91 r13725"
   sodipodi:docname="gscan2pdf.svg">
  <metadata
     id="metadata55">
    <rdf:RDF>
      <cc:Work
         rdf:about="">
        <dc:format>image/svg+xml</dc:format>
        <dc:type
           rdf:resource="http://purl.org/dc/dcmitype/StillImage" />
        <dc:title></dc:title>
      </cc:Work>
    </rdf:RDF>
  </metadata>
  <sodipodi:namedview
     pagecolor="#ffffff"
     bordercolor="#666666"
     borderopacity="1"
     objecttolerance="10"
     gridtolerance="10"
     guidetolerance="10"
     inkscape:pageopacity="0"
     inkscape:pageshadow="2"
     inkscape:window-width="1321"
     inkscape:window-height="744"
     id="namedview53"
     showgrid="false"
     inkscape:zoom="11.91689"
     inkscape:cx="20.952016"
     inkscape:cy="25.270014"
     inkscape:window-x="39"
     inkscape:window-y="24"
     inkscape:window-maximized="1"
     inkscape:current-layer="svg2" />
  <defs
     id="defs4">
    <linearGradient
       id="linearGradient3764"
       x1="1"
       x2="47"
       gradientUnits="userSpaceOnUse"
       gradientTransform="matrix(0,-1,1,0,-1.5e-6,47.999998)">
      <stop
         style="stop-color:#bf1515;stop-opacity:1"
         id="stop7" />
      <stop
         offset="1"
         style="stop-color:#d01717;stop-opacity:1"
         id="stop9" />
    </linearGradient>
  </defs>
  <g
     id="g19">
    <path
       d="m 24 1 c 12.703 0 23 10.297 23 23 c 0 12.703 -10.297 23 -23 23 -12.703 0 -23 -10.297 -23 -23 0 -12.703 10.297 -23 23 -23 z"
       style="fill:url(#linearGradient3764);fill-opacity:1"
       id="path21" />
  </g>
  <g
     id="g39">
    <g
       id="g41">
      <!-- color: #d01717 -->
      <g
         id="g43">
        <path
           d="m 16,12 c -0.516,0 -1,0.484 -1,1 l 0,22 c 0,0.484 0.516,1 1,1 l 16,0 c 0.484,0 1,-0.516 1,-1 L 33,18.5 26.5,12 m -3.313,8 c 0.094,-0.016 0.184,0.023 0.281,0.125 0.141,0.137 0.191,0.379 0.219,0.531 -0.027,-0.09 -0.066,-0.203 -0.125,-0.25 -0.074,-0.145 -0.594,-0.457 -0.5,0.688 0.039,0.469 0.094,1.141 0.219,1.844 C 23.57,21.84 23.75,21 23.75,21 c 0,0 0.105,1.109 -0.281,2.844 0.219,0.754 0.566,1.52 1.125,2.188 0.488,0.582 1.133,1.07 1.781,1.438 0.371,-0.035 0.699,-0.07 1.375,-0.094 1.816,-0.055 2.043,0.168 2.188,0.438 0.168,0.258 -0.094,0.5 -0.094,0.5 0,0 0.016,-0.18 -0.188,-0.344 -0.18,-0.145 -0.898,-0.309 -2.688,-0.188 0.922,0.441 1.789,0.66 2.125,0.688 0.645,0.055 0.688,-0.094 0.688,-0.094 0,0 -0.281,0.535 -1.531,0.281 -0.633,-0.129 -1.398,-0.434 -2.094,-0.813 -2.227,0.246 -4.5,0.969 -4.5,0.969 0,0 0.828,-0.691 2.5,-1 0.715,-0.133 1.102,-0.219 1.5,-0.281 -0.465,-0.297 -0.883,-0.613 -1.188,-0.969 -0.441,-0.512 -0.824,-1.324 -1.125,-2.125 -0.305,1.137 -0.824,2.484 -1.688,3.969 -2.438,4.203 -3.152,3.648 -3.406,3.5 -0.258,-0.145 -0.586,-0.617 0.5,-1.563 1.082,-0.949 1.5,-0.938 1.5,-0.938 0,0 -0.988,0.605 -1.375,1.188 -0.383,0.582 -0.684,0.93 -0.594,1.094 0.094,0.164 1.195,-0.668 1.656,-1.375 0.727,-1.129 2.102,-3.219 2.75,-5.219 0.148,-0.469 0.281,-0.957 0.406,-1.406 -0.148,-0.453 -0.27,-0.867 -0.316,-1.156 -0.164,-0.93 -0.074,-1.902 0.125,-2.25 0.105,-0.172 0.188,-0.262 0.281,-0.281 m 0,0"
           style="fill:#f9f9f9;fill-opacity:1;stroke:none;fill-rule:nonzero"
           id="path45" />
        <path
           d="m 26.5 17.5 0.031 0.031 0.078 -0.031 m 0.891 1 5.5 5.5 0 -5.5 m -5.5 0"
           id="SVGCleanerId_0"
           style="fill:#000;fill-opacity:0.196;stroke:none;fill-rule:nonzero" />
        <path
           d="m 26.5 12 6.5 6.5 -5.5 0 c -0.484 0 -1 -0.52 -1 -1 m 0 -5.5"
           id="SVGCleanerId_1"
           style="fill:#000;fill-opacity:0.392;stroke:none;fill-rule:nonzero" />
      </g>
    </g>
  </g>
</svg>
