<?xml version="1.0" encoding="UTF-8" standalone="no"?>
<svg
   xmlns:dc="http://purl.org/dc/elements/1.1/"
   xmlns:cc="http://creativecommons.org/ns#"
   xmlns:rdf="http://www.w3.org/1999/02/22-rdf-syntax-ns#"
   xmlns:svg="http://www.w3.org/2000/svg"
   xmlns="http://www.w3.org/2000/svg"
   xmlns:sodipodi="http://sodipodi.sourceforge.net/DTD/sodipodi-0.dtd"
   xmlns:inkscape="http://www.inkscape.org/namespaces/inkscape"
   viewBox="0 0 48 48"
   id="svg2"
   version="1.1"
   inkscape:version="0.91 r13725"
   sodipodi:docname="hugin.svg">
  <metadata
     id="metadata45">
    <rdf:RDF>
      <cc:Work
         rdf:about="">
        <dc:format>image/svg+xml</dc:format>
        <dc:type
           rdf:resource="http://purl.org/dc/dcmitype/StillImage" />
        <dc:title></dc:title>
      </cc:Work>
    </rdf:RDF>
  </metadata>
  <sodipodi:namedview
     pagecolor="#ffffff"
     bordercolor="#666666"
     borderopacity="1"
     objecttolerance="10"
     gridtolerance="10"
     guidetolerance="10"
     inkscape:pageopacity="0"
     inkscape:pageshadow="2"
     inkscape:window-width="1321"
     inkscape:window-height="744"
     id="namedview43"
     showgrid="false"
     inkscape:zoom="11.984375"
     inkscape:cx="21.538462"
     inkscape:cy="24"
     inkscape:window-x="39"
     inkscape:window-y="24"
     inkscape:window-maximized="1"
     inkscape:current-layer="svg2" />
  <defs
     id="defs4">
    <linearGradient
       id="linearGradient3797"
       y1="47"
       x2="0"
       y2="1"
       gradientUnits="userSpaceOnUse">
      <stop
         style="stop-color:#2483cc;stop-opacity:1"
         id="stop7" />
      <stop
         offset="1"
         style="stop-color:#50a7e9;stop-opacity:1"
         id="stop9" />
    </linearGradient>
  </defs>
  <path
     d="M 24,1 C 36.703,1 47,11.297 47,24 47,36.703 36.703,47 24,47 11.297,47 1,36.703 1,24 1,11.297 11.297,1 24,1 z"
     style="fill:url(#linearGradient3797);fill-opacity:1"
     id="path19" />
  <g
     id="g33">
    <path
       d="m 12 16 26 2 -10 0 -4 0 z"
       style="fill:#333;stroke:none"
       id="path35" />
    <path
       d="m 24 21 -2 5 -3 6 3 2 -1 -2 3 -6 -1 7 3 2 -1 -2 0 -4 2 -8 1 -2 -4 0 z"
       style="fill:#333;stroke:none"
       id="path37" />
    <path
       transform="matrix(1.3333333,0,0,1.3333333,-6.6666659,-1.6666662)"
       d="m 26 12.5 a 1.5 1.5 0 1 1 -3 0 1.5 1.5 0 1 1 3 0 z"
       style="fill:#333;fill-opacity:1;stroke:none"
       id="path39" />
    <path
       d="m 26 12.5 a 1.5 1.5 0 1 1 -3 0 1.5 1.5 0 1 1 3 0 z"
       transform="translate(2,2.5)"
       style="fill:#d6d610;fill-opacity:1;stroke:none"
       id="path41" />
  </g>
</svg>
