<?xml version="1.0" encoding="UTF-8" standalone="no"?>
<svg
   xmlns:dc="http://purl.org/dc/elements/1.1/"
   xmlns:cc="http://creativecommons.org/ns#"
   xmlns:rdf="http://www.w3.org/1999/02/22-rdf-syntax-ns#"
   xmlns:svg="http://www.w3.org/2000/svg"
   xmlns="http://www.w3.org/2000/svg"
   xmlns:sodipodi="http://sodipodi.sourceforge.net/DTD/sodipodi-0.dtd"
   xmlns:inkscape="http://www.inkscape.org/namespaces/inkscape"
   viewBox="0 0 48 48"
   id="svg2"
   version="1.1"
   inkscape:version="0.91 r13725"
   sodipodi:docname="kompare.svg">
  <metadata
     id="metadata83">
    <rdf:RDF>
      <cc:Work
         rdf:about="">
        <dc:format>image/svg+xml</dc:format>
        <dc:type
           rdf:resource="http://purl.org/dc/dcmitype/StillImage" />
        <dc:title></dc:title>
      </cc:Work>
    </rdf:RDF>
  </metadata>
  <sodipodi:namedview
     pagecolor="#ffffff"
     bordercolor="#666666"
     borderopacity="1"
     objecttolerance="10"
     gridtolerance="10"
     guidetolerance="10"
     inkscape:pageopacity="0"
     inkscape:pageshadow="2"
     inkscape:window-width="1321"
     inkscape:window-height="744"
     id="namedview81"
     showgrid="false"
     inkscape:zoom="11.984375"
     inkscape:cx="11.149935"
     inkscape:cy="30.675359"
     inkscape:window-x="39"
     inkscape:window-y="24"
     inkscape:window-maximized="1"
     inkscape:current-layer="svg2" />
  <defs
     id="defs4">
    <linearGradient
       id="linearGradient4192"
       y1="47"
       x2="0"
       y2="1"
       gradientUnits="userSpaceOnUse">
      <stop
         style="stop-color:#c23257;stop-opacity:1"
         id="stop7" />
      <stop
         offset="1"
         style="stop-color:#cd3b61;stop-opacity:1"
         id="stop9" />
    </linearGradient>
  </defs>
  <path
     d="M 24,1 C 36.703,1 47,11.297 47,24 47,36.703 36.703,47 24,47 11.297,47 1,36.703 1,24 1,11.297 11.297,1 24,1 z"
     style="fill:url(#linearGradient4192);fill-opacity:1"
     id="path19" />
  <path
     d="m 21 18 l 0 19 l 16 0 l 0 -16 l -3 -3 l -13 0 z"
     style="fill:#eadcdc;fill-opacity:1;stroke:none;fill-rule:evenodd"
     id="path27" />
  <path
     d="m 22 31 14 0 0 1 -14 0 z"
     style="fill:#b5b5b5;fill-opacity:0.853;stroke:none;fill-rule:nonzero"
     id="path31" />
  <path
     d="m 22 23 14 0 0 1 -14 0 z"
     style="fill:#59bf4a;fill-opacity:1;stroke:none;fill-rule:nonzero"
     id="path33" />
  <path
     d="m 22 21 14 0 0 1 -14 0 z"
     style="fill:#b5b5b5;fill-opacity:0.853;stroke:none;fill-rule:nonzero"
     id="path35" />
  <g
     transform="matrix(0.61538462,0,0,0.73076921,14.230769,9.9615387)"
     style="fill:#c83737"
     id="g37">
    <g
       transform="translate(0,-0.004)"
       id="g39">
      <g
         id="g41">
        <g
           transform="translate(1,1)"
           id="g43">
          <g
             style="opacity:0.1"
             id="g45">
            <!-- color: #cccdb6 -->
          </g>
        </g>
      </g>
    </g>
  </g>
  <path
     d="m 22 25 14 0 0 1 -14 0 z"
     style="fill:#59bf4a;fill-opacity:1;stroke:none;fill-rule:nonzero"
     id="path47" />
  <path
     d="m 22 27 14 0 0 1 -14 0 z"
     style="fill:#b5b5b5;fill-opacity:0.853;stroke:none;fill-rule:nonzero"
     id="path49" />
  <path
     d="m 22 29 14 0 0 1 -14 0 z"
     style="fill:#b5b5b5;fill-opacity:0.853;stroke:none;fill-rule:nonzero"
     id="path51" />
  <path
     d="m 11 11 l 0 19 l 16 0 l 0 -16 l -3 -3 l -13 0 z"
     style="fill:#fdfbfb;fill-opacity:1;stroke:none;fill-rule:evenodd"
     id="path53" />
  <g
     transform="matrix(0.61538462,0,0,0.73076921,4.2307692,2.9586156)"
     style="fill:#de8787"
     id="g55">
    <g
       transform="translate(1,1)"
       id="g57">
      <g
         style="opacity:0.1"
         id="g59">
        <!-- color: #cccdb6 -->
      </g>
    </g>
  </g>
  <path
     d="m 12 14 14 0 0 1 -14 0 z"
     style="fill:#b5b5b5;fill-opacity:0.853;stroke:none;fill-rule:nonzero"
     id="path61" />
  <path
     d="m 12 16 14 0 0 1 -14 0 z"
     style="fill:#d24c37;fill-opacity:1;stroke:none;fill-rule:nonzero"
     id="path63" />
  <path
     d="m 12 18 14 0 0 1 -14 0 z"
     style="fill:#d24c37;fill-opacity:1;stroke:none;fill-rule:nonzero"
     id="path65" />
  <path
     d="m 12 20 14 0 0 1 -14 0 z"
     style="fill:#b5b5b5;fill-opacity:0.853;stroke:none;fill-rule:nonzero"
     id="path67" />
  <path
     d="m 12 22 14 0 0 1 -14 0 z"
     style="fill:#b5b5b5;fill-opacity:0.853;stroke:none;fill-rule:nonzero"
     id="path69" />
  <path
     d="m 12 24 14 0 0 1 -14 0 z"
     style="fill:#b5b5b5;fill-opacity:0.853;stroke:none;fill-rule:nonzero"
     id="path71" />
  <path
     d="m 12 26 14 0 0 1 -14 0 z"
     style="fill:#b5b5b5;fill-opacity:0.853;stroke:none;fill-rule:nonzero"
     id="path73" />
  <path
     d="m 12 28 14 0 0 1 -14 0 z"
     style="fill:#b5b5b5;fill-opacity:0.853;stroke:none;fill-rule:nonzero"
     id="path75" />
  <path
     d="m 22 33 14 0 0 1 -14 0 z"
     style="fill:#b5b5b5;fill-opacity:0.853;stroke:none;fill-rule:nonzero"
     id="path77" />
  <path
     d="m 22 35 14 0 0 1 -14 0 z"
     style="fill:#b5b5b5;fill-opacity:0.853;stroke:none;fill-rule:nonzero"
     id="path79" />
</svg>
