<?xml version="1.0" encoding="UTF-8" standalone="no"?>
<!-- Generator: Adobe Illustrator 19.0.0, SVG Export Plug-In . SVG Version: 6.00 Build 0)  -->

<svg
   xmlns:dc="http://purl.org/dc/elements/1.1/"
   xmlns:cc="http://creativecommons.org/ns#"
   xmlns:rdf="http://www.w3.org/1999/02/22-rdf-syntax-ns#"
   xmlns:svg="http://www.w3.org/2000/svg"
   xmlns="http://www.w3.org/2000/svg"
   xmlns:sodipodi="http://sodipodi.sourceforge.net/DTD/sodipodi-0.dtd"
   xmlns:inkscape="http://www.inkscape.org/namespaces/inkscape"
   version="1.1"
   id="Layer_1"
   x="0px"
   y="0px"
   viewBox="0 0 48 48"
   xml:space="preserve"
   inkscape:version="0.91 r13725"
   sodipodi:docname="mdb.svg"
   width="48"
   height="48"><metadata
     id="metadata71"><rdf:RDF><cc:Work
         rdf:about=""><dc:format>image/svg+xml</dc:format><dc:type
           rdf:resource="http://purl.org/dc/dcmitype/StillImage" /><dc:title></dc:title></cc:Work></rdf:RDF></metadata><defs
     id="defs69" /><sodipodi:namedview
     pagecolor="#ffffff"
     bordercolor="#666666"
     borderopacity="1"
     objecttolerance="10"
     gridtolerance="10"
     guidetolerance="10"
     inkscape:pageopacity="0"
     inkscape:pageshadow="2"
     inkscape:window-width="1321"
     inkscape:window-height="744"
     id="namedview67"
     showgrid="false"
     inkscape:zoom="13.121393"
     inkscape:cx="21.755957"
     inkscape:cy="20.977001"
     inkscape:window-x="39"
     inkscape:window-y="24"
     inkscape:window-maximized="1"
     inkscape:current-layer="Layer_1" /><path
     inkscape:connector-curvature="0"
     id="path9"
     d="m 43.859192,5.0412859 -6.164277,0 0,-2.7396784 -25.625582,0 -8.6203977,8.6203985 0,33.844617 34.2459797,0 0,-26.026945 6.164277,0 c 1.132857,0 2.054758,-0.921902 2.054758,-2.054759 l 0,-9.5888743 c 0,-1.132857 -0.921901,-2.0547588 -2.054758,-2.0547588 z M 11.667971,4.639923 l 0,5.88072 -5.8807202,0 5.8807202,-5.88072 z m 24.657105,38.75686 -31.5063015,0 0,-31.506301 8.2190355,0 0,-8.2190353 23.287266,0 0,1.3698392 -17.12299,0 c -1.132857,0 -2.054759,0.9219018 -2.054759,2.0547588 l 0,9.5888743 c 0,1.132857 0.921902,2.054759 2.054759,2.054759 l 17.12299,0 0,24.657105 z m 8.219035,-26.711864 c 0,0.378076 -0.307529,0.68492 -0.684919,0.68492 l -24.657106,0 c -0.377391,0 -0.68492,-0.306844 -0.68492,-0.68492 l 0,-9.5888743 c 0,-0.3780756 0.307529,-0.6849196 0.68492,-0.6849196 l 24.657106,0 c 0.37739,0 0.684919,0.306844 0.684919,0.6849196 l 0,9.5888743 z" /><path
     inkscape:connector-curvature="0"
     id="path11"
     d="m 30.845719,7.7809643 -2.739678,0 0,8.2190347 2.739678,0 c 2.266399,0 4.109518,-1.843118 4.109518,-4.109517 0,-2.2663991 -1.843119,-4.1095177 -4.109518,-4.1095177 z m 0,6.8491957 -1.369839,0 0,-5.4793565 1.369839,0 c 1.510933,0 2.739679,1.2287455 2.739679,2.7396785 0,1.510933 -1.228746,2.739678 -2.739679,2.739678 z" /><rect
     id="rect13"
     height="1.3698392"
     width="1.3698392"
     y="13.260321"
     x="6.1886139" /><rect
     id="rect15"
     height="1.3698392"
     width="1.3698392"
     y="13.260321"
     x="8.9282923" /><rect
     id="rect17"
     height="1.3698392"
     width="1.3698392"
     y="15.999999"
     x="6.1886139" /><polygon
     id="polygon19"
     points="232,90.664 212,64 192,64 192,160 208,160 208,85.336 232,117.336 256,85.336 256,160 272,160 272,64 252,64 "
     transform="matrix(0.08561495,0,0,0.08561495,3.4489353,2.3016075)" /><path
     inkscape:connector-curvature="0"
     id="path21"
     d="m 40.777053,7.7809643 -4.451977,0 0,8.2190347 4.451977,0 c 1.321895,0 2.397219,-1.075323 2.397219,-2.397218 0,-0.670536 -0.276022,-1.27669 -0.72122,-1.712299 0.445198,-0.435609 0.72122,-1.041763 0.72122,-1.712299 0,-1.3218949 -1.075324,-2.3972187 -2.397219,-2.3972187 z m 0,6.8491957 -3.082138,0 0,-2.054759 3.082138,0 c 0.566429,0 1.02738,0.460951 1.02738,1.02738 0,0.566428 -0.460951,1.027379 -1.02738,1.027379 z m 0,-3.424598 -3.082138,0 0,-2.0547585 3.082138,0 c 0.566429,0 1.02738,0.4609509 1.02738,1.0273795 0,0.566428 -0.460951,1.027379 -1.02738,1.027379 z" /><path
     inkscape:connector-curvature="0"
     id="path23"
     d="m 5.905057,31.068231 3.424598,3.424598 3.306792,0 1.086282,-1.086283 1.086283,1.086283 2.621872,0 1.086282,-1.086283 1.086283,1.086283 2.577352,0 c 1.223952,2.12325 3.45679,3.424598 5.92524,3.424598 3.776647,0 6.849196,-3.07255 6.849196,-6.849196 0,-3.776647 -3.072549,-6.849196 -6.849196,-6.849196 -2.46845,0 -4.701288,1.301347 -5.92524,3.424598 l -12.851146,0 -3.424598,3.424598 z m 17.109292,-2.054759 0.189037,-0.38013 c 0.934916,-1.87805 2.81365,-3.044468 4.902655,-3.044468 3.02118,0 5.479357,2.458176 5.479357,5.479357 0,3.02118 -2.458177,5.479356 -5.479357,5.479356 -2.089005,0 -3.967739,-1.166418 -4.902655,-3.044467 l -0.189037,-0.38013 -2.843102,0 -1.654081,-1.653396 -1.653395,1.653396 -1.487646,0 -1.653396,-1.653396 -1.653396,1.653396 -2.1725646,0 -2.0547588,-2.054759 2.0547588,-2.054759 13.1175806,0 z"
     style="fill:#000000" /><path
     inkscape:connector-curvature="0"
     id="path25"
     d="m 30.1608,33.12299 c 1.132857,0 2.054758,-0.921902 2.054758,-2.054759 0,-1.132857 -0.921901,-2.054759 -2.054758,-2.054759 -1.132857,0 -2.054759,0.921902 -2.054759,2.054759 0,1.132857 0.921902,2.054759 2.054759,2.054759 z m 0,-2.739679 c 0.37739,0 0.684919,0.306844 0.684919,0.68492 0,0.378075 -0.307529,0.684919 -0.684919,0.684919 -0.377391,0 -0.68492,-0.306844 -0.68492,-0.684919 0,-0.378076 0.307529,-0.68492 0.68492,-0.68492 z"
     style="fill:#000000" /><rect
     id="rect27"
     height="1.3698392"
     width="1.3698392"
     y="35.862667"
     x="20.571926" /><rect
     id="rect29"
     height="1.3698392"
     width="1.3698392"
     y="35.862667"
     x="17.832247" /><rect
     id="rect31"
     height="1.3698392"
     width="1.3698392"
     y="35.862667"
     x="15.092568" /><rect
     id="rect33"
     height="1.3698392"
     width="1.3698392"
     y="35.862667"
     x="12.35289" /><rect
     id="rect35"
     height="1.3698392"
     width="1.3698392"
     y="35.862667"
     x="9.6132116" /><g
     id="g37"
     transform="translate(0,-448)" /><g
     id="g39"
     transform="translate(0,-448)" /><g
     id="g41"
     transform="translate(0,-448)" /><g
     id="g43"
     transform="translate(0,-448)" /><g
     id="g45"
     transform="translate(0,-448)" /><g
     id="g47"
     transform="translate(0,-448)" /><g
     id="g49"
     transform="translate(0,-448)" /><g
     id="g51"
     transform="translate(0,-448)" /><g
     id="g53"
     transform="translate(0,-448)" /><g
     id="g55"
     transform="translate(0,-448)" /><g
     id="g57"
     transform="translate(0,-448)" /><g
     id="g59"
     transform="translate(0,-448)" /><g
     id="g61"
     transform="translate(0,-448)" /><g
     id="g63"
     transform="translate(0,-448)" /><g
     id="g65"
     transform="translate(0,-448)" /><path
     style="opacity:1;fill:#ffeb3b;fill-opacity:1;stroke:none"
     d="m 27.326412,36.443512 c -1.752905,-0.302373 -3.128963,-1.253693 -3.970629,-2.745045 l -0.335615,-0.594676 -1.415401,0 -1.415402,0 -0.837674,-0.83276 -0.837674,-0.832761 -0.837673,0.832761 -0.837673,0.83276 -0.700878,0 -0.700878,0 -0.80295,-0.808344 c -0.441622,-0.444589 -0.853877,-0.808344 -0.916123,-0.808344 -0.06225,0 -0.474501,0.363755 -0.916124,0.808344 l -0.802949,0.808344 -1.028729,0 -1.0287285,0 -1.0196452,-1.023902 -1.0196453,-1.023903 1.0196453,-1.023903 1.0196452,-1.023902 6.5418065,0 6.541807,0 0.349735,-0.611274 c 0.713738,-1.247483 2.107038,-2.306294 3.438358,-2.612911 0.693057,-0.159618 2.004644,-0.140244 2.680316,0.03959 1.806626,0.480851 3.308633,1.938095 3.830254,3.716105 0.243191,0.828945 0.224621,2.2925 -0.03995,3.148572 -0.370646,1.199301 -1.154678,2.234774 -2.208865,2.917251 -1.050808,0.68029 -2.623868,1.031968 -3.748361,0.837995 z m 3.792031,-3.547826 c 0.204317,-0.101362 0.517388,-0.364562 0.695713,-0.584889 0.598192,-0.739086 0.485588,-2.157973 -0.220439,-2.777668 -0.966174,-0.848032 -2.497963,-0.641715 -3.176235,0.427808 -0.633079,0.998263 -0.294464,2.377596 0.712535,2.902471 0.698095,0.363866 1.300333,0.373642 1.988426,0.03228 z"
     id="path4246"
     inkscape:connector-curvature="0" /><path
     style="opacity:1;fill:#ffffff;fill-opacity:1;stroke:none"
     d="m 18.74797,17.147637 c -0.186286,-0.186286 -0.186286,-10.3329671 0,-10.5192529 0.09912,-0.099122 3.078774,-0.129335 12.755134,-0.129335 12.09479,0 12.633301,0.00829 12.804172,0.1971002 0.160598,0.1774577 0.178374,0.696734 0.178374,5.2105877 0,4.720107 -0.01153,5.023926 -0.197101,5.191861 -0.181038,0.163839 -1.224407,0.178374 -12.804172,0.178374 -9.661794,0 -12.637287,-0.03022 -12.736407,-0.129335 z m 2.590463,-4.187522 0.02857,-3.131285 0.965334,1.298328 c 0.530933,0.714081 1.001158,1.262272 1.044942,1.218204 0.04378,-0.04407 0.494521,-0.634093 1.001637,-1.311167 l 0.922028,-1.2310425 0,3.1441235 0,3.144124 0.754455,0 0.754454,0 0,-4.20339 0,-4.2033895 -0.89307,0 -0.89307,0 -0.846529,1.1381056 c -0.465592,0.625958 -0.881532,1.0988394 -0.924312,1.0508474 -0.04278,-0.047992 -0.431271,-0.561983 -0.863314,-1.1422024 l -0.785531,-1.0549444 -0.872967,0.031042 -0.872967,0.031042 -0.02828,4.0413378 c -0.01556,2.222736 -0.005,4.102137 0.02356,4.176445 0.03421,0.08916 0.290674,0.135107 0.754165,0.135107 l 0.70232,0 0.02857,-3.131285 z m 10.154307,3.025044 c 1.35672,-0.222168 2.520682,-1.106827 3.121781,-2.372681 0.299196,-0.630078 0.332667,-0.803585 0.332667,-1.724468 0,-0.924846 -0.03253,-1.091678 -0.336245,-1.724467 C 34.422791,9.7715285 34.044619,9.2359578 33.752302,8.9475284 32.767347,7.9756706 31.776857,7.686886 29.423503,7.6854347 l -1.320296,-8.142e-4 0,4.2033895 0,4.20339 1.374185,-6.25e-4 c 0.755802,-3.45e-4 1.662708,-0.04787 2.015348,-0.105617 z m 10.352319,-0.18049 c 0.882069,-0.47554 1.34724,-1.232453 1.34724,-2.192191 0,-0.570481 -0.209247,-1.204199 -0.505822,-1.531909 -0.160497,-0.177348 -0.160497,-0.207769 0,-0.385117 0.478118,-0.528314 0.655412,-1.720756 0.360486,-2.4245496 C 42.831567,8.7568975 42.360417,8.2445304 41.858446,7.9784132 41.444524,7.7589752 41.237825,7.7400782 38.854185,7.7037554 l -2.559757,-0.039007 0,4.2218752 0,4.221874 2.559757,-0.0357 c 2.378743,-0.03318 2.590243,-0.05214 2.990874,-0.268126 z"
     id="path4248"
     inkscape:connector-curvature="0" /><path
     style="opacity:1;fill:#ffeb3b;fill-opacity:1;stroke:none"
     d="m 18.74797,17.147637 c -0.186286,-0.186286 -0.186286,-10.3329671 0,-10.5192529 0.09912,-0.099122 3.078774,-0.129335 12.755134,-0.129335 12.09479,0 12.633301,0.00829 12.804172,0.1971002 0.160598,0.1774577 0.178374,0.696734 0.178374,5.2105877 0,4.720107 -0.01153,5.023926 -0.197101,5.191861 -0.181038,0.163839 -1.224407,0.178374 -12.804172,0.178374 -9.661794,0 -12.637287,-0.03022 -12.736407,-0.129335 z m 2.590463,-4.180919 0.02857,-3.1246829 0.916123,1.2054579 c 0.503868,0.663002 0.964624,1.218576 1.023903,1.234608 0.05928,0.01603 0.520034,-0.529161 1.023902,-1.211542 l 0.916124,-1.2406929 0.02857,3.1307669 0.02857,3.130767 0.752827,0 0.752826,0 0,-4.20339 0,-4.2033895 -0.89307,0 -0.89307,0 -0.841752,1.1316819 c -0.462963,0.6224251 -0.856683,1.1316819 -0.874932,1.1316819 -0.01825,0 -0.413288,-0.5110294 -0.877863,-1.1356209 l -0.844682,-1.1356209 -0.863195,0.030884 -0.863196,0.030884 -0.02828,4.0413378 c -0.01556,2.222736 -0.005,4.102137 0.02356,4.176445 0.03421,0.08916 0.290674,0.135107 0.754165,0.135107 l 0.70232,0 0.02857,-3.124682 z m 10.090345,3.011906 c 1.390891,-0.225693 2.628205,-1.164827 3.228444,-2.450422 0.248363,-0.531946 0.287743,-0.756417 0.287743,-1.640192 0,-0.885264 -0.03919,-1.107854 -0.289449,-1.643918 C 34.496318,9.9030837 34.121698,9.365693 33.823026,9.0498906 32.835032,8.0052332 31.807983,7.6908661 29.369613,7.6867555 l -1.266406,-0.00213 0,4.2033895 0,4.20339 1.320296,-8.19e-4 c 0.726162,-4.53e-4 1.628536,-0.05083 2.005275,-0.111962 l 0,5e-6 z m 9.725432,0.0032 c 1.104045,-0.209377 1.879431,-0.991731 2.001107,-2.019087 0.08442,-0.712757 -0.01551,-1.208676 -0.339848,-1.686613 l -0.26335,-0.388068 0.26335,-0.388067 C 43.531712,10.444501 43.214116,8.8845203 42.138013,8.17239 41.544113,7.7793654 40.824895,7.6846205 38.435302,7.6846205 l -2.140874,0 0,4.2033895 0,4.20339 2.140874,0 c 1.177481,0 2.400989,-0.04933 2.718908,-0.109622 z"
     id="path4250"
     inkscape:connector-curvature="0" /><path
     style="opacity:1;fill:#ffeb3b;fill-opacity:1;stroke:none"
     d="m 29.504337,11.88801 0,-2.7195513 1.050848,0.045875 c 1.224528,0.053457 1.728455,0.259065 2.315312,0.9446758 0.839138,0.980343 0.839138,2.47766 0,3.458003 -0.586857,0.685611 -1.090784,0.891219 -2.315312,0.944676 l -1.050848,0.04587 0,-2.719552 z"
     id="path4252"
     inkscape:connector-curvature="0" /><path
     style="opacity:1;fill:#ffeb3b;fill-opacity:1;stroke:none"
     d="m 37.695558,10.163543 0,-0.9700133 1.622041,0 c 1.859816,0 2.163985,0.089087 2.362994,0.6920911 0.100068,0.3032082 0.09151,0.4332832 -0.04603,0.6992442 -0.09293,0.179708 -0.262276,0.376681 -0.376322,0.437717 -0.116743,0.06248 -0.940489,0.110974 -1.885021,0.110974 l -1.677664,0 0,-0.970013 z"
     id="path4254"
     inkscape:connector-curvature="0" /><path
     style="opacity:1;fill:#ffeb3b;fill-opacity:1;stroke:none"
     d="m 37.695558,13.612478 0,-0.970013 1.677664,0 c 0.944532,0 1.768278,0.0485 1.885021,0.110974 0.114046,0.06104 0.283391,0.258008 0.376322,0.437717 0.137534,0.26596 0.146096,0.396035 0.04603,0.699244 -0.199009,0.603004 -0.503178,0.692091 -2.362994,0.692091 l -1.622041,0 0,-0.970013 z"
     id="path4256"
     inkscape:connector-curvature="0" /><path
     style="opacity:1;fill:#03a9f4;fill-opacity:1;stroke:none"
     d="m 4.8675062,27.655554 0,-15.737659 4.1154168,0 4.115417,0 0,-4.1154168 0,-4.1154168 11.584136,0 11.584136,0 0,0.6462429 0,0.646243 -8.783366,0.020607 -8.783367,0.020607 -0.347121,0.1710692 C 17.886276,5.4217243 17.532583,5.7797959 17.317265,6.240144 l -0.178231,0.3810571 -7.62e-4,5.2299529 c -8.15e-4,5.722457 -0.01179,5.572365 0.449967,6.155376 0.12319,0.155539 0.406553,0.383933 0.629696,0.507543 l 0.405733,0.224744 8.821472,0.0203 8.821472,0.0203 0,12.306899 0,12.306898 -15.699553,0 -15.6995528,0 0,-15.737658 z M 29.832069,37.713869 c 1.14465,-0.286799 2.121171,-0.83695 3.032579,-1.708489 1.323936,-1.26602 2.006551,-2.777044 2.08507,-4.615467 0.13934,-3.262478 -1.815584,-5.985564 -4.987175,-6.946818 -0.584831,-0.177252 -0.808706,-0.203742 -1.774342,-0.20995 -1.212751,-0.0078 -1.791623,0.09675 -2.773355,0.500901 -1.122782,0.462214 -2.313708,1.444738 -2.995094,2.470979 l -0.273833,0.412423 -6.409414,0 -6.4094141,0 -1.7344246,1.733195 -1.7344248,1.733195 1.7331951,1.734424 1.7331951,1.734425 1.6373743,0 1.637375,0 0.554325,-0.550625 0.554325,-0.550625 0.554325,0.550625 0.554325,0.550625 1.29201,0 1.29201,0 0.554324,-0.550625 0.554326,-0.550625 0.554325,0.550625 0.554325,0.550625 1.271909,0 1.27191,0 0.307575,0.452924 c 1.585233,2.33436 4.530729,3.41782 7.362674,2.708258 z m -18.791438,-1.141579 0,-0.724009 -0.724008,0 -0.7240087,0 0,0.724009 0,0.724008 0.7240087,0 0.724008,0 0,-0.724008 z m 2.727419,-0.01905 0.02191,-0.704956 -0.726868,0 -0.726868,0 0,0.726869 0,0.726868 0.704955,-0.02191 0.704956,-0.02191 0.02191,-0.704956 z m 2.743611,0 0.02191,-0.704956 -0.726868,0 -0.726868,0 0,0.726869 0,0.726868 0.704955,-0.02191 0.704956,-0.02191 0.02191,-0.704956 z m 2.743611,0 0.02191,-0.704956 -0.726868,0 -0.726869,0 0,0.726869 0,0.726868 0.704956,-0.02191 0.704955,-0.02191 0.02191,-0.704956 z m 2.721698,0.01905 0,-0.685903 -0.704955,-0.02191 -0.704956,-0.02191 0,0.729728 0,0.729728 0.704956,-0.02191 0.704955,-0.02191 0,-0.685903 z M 7.6111174,16.681109 l 0,-0.724009 -0.7240085,0 -0.7240086,0 0,0.724009 0,0.724008 0.7240086,0 0.7240085,0 0,-0.724008 z m 0,-2.743611 0,-0.724009 -0.7240085,0 -0.7240086,0 0,0.724009 0,0.724008 0.7240086,0 0.7240085,0 0,-0.724008 z m 2.7436116,0 0,-0.724009 -0.724009,0 -0.7240085,0 0,0.724009 0,0.724008 0.7240085,0 0.724009,0 0,-0.724008 z"
     id="path4258"
     inkscape:connector-curvature="0" /><path
     style="opacity:1;fill:#00b0ff;fill-opacity:1;stroke:none"
     d="m 4.8675062,27.655554 0,-15.737659 4.1154168,0 4.115417,0 0,-4.1154168 0,-4.1154168 11.584136,0 11.584136,0 0,0.6477971 0,0.6477971 -8.783366,9.084e-4 -8.783367,9.084e-4 -0.457268,0.2526879 c -0.337045,0.1862521 -0.537417,0.368229 -0.762114,0.6921484 l -0.304846,0.4394605 0,5.3848028 c 0,2.961643 0.02623,5.50783 0.05829,5.658196 0.07727,0.36245 0.515254,0.862169 0.998658,1.139424 l 0.391073,0.2243 8.821472,6.86e-4 8.821472,7.45e-4 0,12.308145 0,12.308144 -15.699553,0 -15.6995528,0 0,-15.737658 z M 28.895712,37.904255 c 1.351524,-0.15485 2.687536,-0.739032 3.682872,-1.610366 1.107582,-0.969598 1.734624,-1.920289 2.138302,-3.241997 0.187685,-0.61451 0.205171,-0.780712 0.206925,-1.966824 0.0018,-1.196384 -0.01391,-1.346931 -0.204768,-1.965995 -0.697597,-2.262729 -2.249747,-3.845455 -4.549345,-4.638966 -0.708195,-0.244373 -0.752305,-0.249805 -2.019602,-0.248717 -1.006583,8.61e-4 -1.406099,0.03152 -1.790969,0.137452 -0.605971,0.166781 -1.614099,0.630835 -2.106647,0.969717 -0.573811,0.394792 -1.513574,1.331472 -1.832463,1.826451 l -0.290624,0.451105 -6.439243,6.86e-4 -6.4392441,6.47e-4 -1.6963256,1.695069 c -0.9329791,0.932288 -1.6963256,1.729935 -1.6963256,1.772551 0,0.04262 0.7633465,0.840263 1.6963256,1.77255 l 1.6963256,1.695069 1.7122231,0 1.712223,0 0.516339,-0.512383 0.51634,-0.512383 0.51634,0.512383 0.516339,0.512383 1.367981,0 1.36798,0 0.51634,-0.512383 0.51634,-0.512383 0.51634,0.512383 0.516339,0.512383 1.293682,0.0012 1.293681,0.0012 0.378351,0.538795 c 0.671987,0.956952 1.554255,1.688767 2.656899,2.203821 1.222906,0.57123 2.387073,0.760462 3.731069,0.606475 l 0,0 z m -17.855081,-1.331965 0,-0.724009 -0.724008,0 -0.7240087,0 0,0.724009 0,0.724008 0.7240087,0 0.724008,0 0,-0.724008 z m 2.743612,0 0,-0.724009 -0.724009,0 -0.724008,0 0,0.724009 0,0.724008 0.724008,0 0.724009,0 0,-0.724008 z m 2.743611,0 0,-0.724009 -0.724009,0 -0.724008,0 0,0.724009 0,0.724008 0.724008,0 0.724009,0 0,-0.724008 z m 2.743611,0 0,-0.724009 -0.724009,0 -0.724008,0 0,0.724009 0,0.724008 0.724008,0 0.724009,0 0,-0.724008 z m 2.743611,0 0,-0.724009 -0.724008,0 -0.724009,0 0,0.724009 0,0.724008 0.724009,0 0.724008,0 0,-0.724008 z M 7.6111174,16.681109 l 0,-0.724009 -0.7240085,0 -0.7240086,0 0,0.724009 0,0.724008 0.7240086,0 0.7240085,0 0,-0.724008 z m 0,-2.743611 0,-0.724009 -0.7240085,0 -0.7240086,0 0,0.724009 0,0.724008 0.7240086,0 0.7240085,0 0,-0.724008 z m 2.7436116,0 0,-0.724009 -0.724009,0 -0.7240085,0 0,0.724009 0,0.724008 0.7240085,0 0.724009,0 0,-0.724008 z"
     id="path4260"
     inkscape:connector-curvature="0" /><path
     style="opacity:1;fill:#0091ea;fill-opacity:1;stroke:none"
     d="m 4.8675062,27.655554 0,-15.737659 4.1154168,0 4.115417,0 0,-4.1154168 0,-4.1154168 11.584136,0 11.584136,0 0,0.6477971 0,0.6477971 -8.766847,0 -8.766847,0 -0.367671,0.1863129 c -0.447271,0.2266495 -1.043322,0.8705961 -1.156943,1.2499101 -0.05808,0.1938904 -0.07572,1.9015616 -0.05804,5.6193834 l 0.02539,5.34085 0.230151,0.375006 c 0.151387,0.24667 0.395007,0.485855 0.711868,0.698906 l 0.481716,0.323899 8.833613,0 8.833613,0 0,12.308145 0,12.308144 -15.699553,0 -15.6995528,0 0,-15.737658 z M 29.586938,37.784291 c 1.279512,-0.264948 2.514958,-0.976141 3.527074,-2.030385 1.071105,-1.115688 1.62721,-2.29816 1.797509,-3.822128 0.250388,-2.240666 -0.397359,-4.156442 -1.922,-5.684509 -1.088273,-1.090718 -2.486892,-1.819205 -3.82342,-1.991473 -0.748534,-0.09648 -2.172906,-0.02915 -2.794634,0.132103 -0.604174,0.1567 -1.492904,0.551645 -2.032323,0.90315 -0.554759,0.361501 -1.671664,1.467928 -1.982861,1.964258 l -0.22689,0.361868 -6.440598,1.52e-4 -6.4405979,1.21e-4 -1.4490281,1.46707 c -0.7969654,0.806888 -1.5631894,1.592333 -1.70272,1.745433 l -0.2536921,0.278363 1.694918,1.722186 1.6949179,1.722187 1.7213792,0 1.72138,0 0.516339,-0.512383 0.51634,-0.512383 0.51634,0.512383 0.516339,0.512383 1.367981,0 1.36798,0 0.51634,-0.512383 0.51634,-0.512383 0.51634,0.512383 0.516339,0.512383 1.301945,0 1.301944,0 0.270085,0.406777 c 1.041064,1.567957 2.868848,2.683104 4.819555,2.940455 0.63273,0.08347 1.625653,0.03465 2.351379,-0.115628 z m -18.546307,-1.212001 0,-0.724009 -0.724008,0 -0.7240087,0 0,0.724009 0,0.724008 0.7240087,0 0.724008,0 0,-0.724008 z m 2.743612,0 0,-0.724009 -0.724009,0 -0.724008,0 0,0.724009 0,0.724008 0.724008,0 0.724009,0 0,-0.724008 z m 2.743611,0 0,-0.724009 -0.724009,0 -0.724008,0 0,0.724009 0,0.724008 0.724008,0 0.724009,0 0,-0.724008 z m 2.743611,0 0,-0.724009 -0.724009,0 -0.724008,0 0,0.724009 0,0.724008 0.724008,0 0.724009,0 0,-0.724008 z m 2.743611,0 0,-0.724009 -0.724008,0 -0.724009,0 0,0.724009 0,0.724008 0.724009,0 0.724008,0 0,-0.724008 z M 7.6111174,16.681109 l 0,-0.724009 -0.7240085,0 -0.7240086,0 0,0.724009 0,0.724008 0.7240086,0 0.7240085,0 0,-0.724008 z m 0,-2.743611 0,-0.724009 -0.7240085,0 -0.7240086,0 0,0.724009 0,0.724008 0.7240086,0 0.7240085,0 0,-0.724008 z m 2.7436116,0 0,-0.724009 -0.724009,0 -0.7240085,0 0,0.724009 0,0.724008 0.7240085,0 0.724009,0 0,-0.724008 z"
     id="path4262"
     inkscape:connector-curvature="0" /></svg>