<?xml version="1.0" encoding="UTF-8" standalone="no"?>
<svg
   xmlns:dc="http://purl.org/dc/elements/1.1/"
   xmlns:cc="http://creativecommons.org/ns#"
   xmlns:rdf="http://www.w3.org/1999/02/22-rdf-syntax-ns#"
   xmlns:svg="http://www.w3.org/2000/svg"
   xmlns="http://www.w3.org/2000/svg"
   xmlns:sodipodi="http://sodipodi.sourceforge.net/DTD/sodipodi-0.dtd"
   xmlns:inkscape="http://www.inkscape.org/namespaces/inkscape"
   viewBox="0 0 48 48"
   id="svg2"
   version="1.1"
   inkscape:version="0.91 r13725"
   sodipodi:docname="mediainfo.svg">
  <metadata
     id="metadata38">
    <rdf:RDF>
      <cc:Work
         rdf:about="">
        <dc:format>image/svg+xml</dc:format>
        <dc:type
           rdf:resource="http://purl.org/dc/dcmitype/StillImage" />
        <dc:title></dc:title>
      </cc:Work>
    </rdf:RDF>
  </metadata>
  <defs
     id="defs36" />
  <sodipodi:namedview
     pagecolor="#ffffff"
     bordercolor="#666666"
     borderopacity="1"
     objecttolerance="10"
     gridtolerance="10"
     guidetolerance="10"
     inkscape:pageopacity="0"
     inkscape:pageshadow="2"
     inkscape:window-width="1321"
     inkscape:window-height="744"
     id="namedview34"
     showgrid="false"
     inkscape:zoom="11.984375"
     inkscape:cx="22.539765"
     inkscape:cy="24"
     inkscape:window-x="39"
     inkscape:window-y="24"
     inkscape:window-maximized="1"
     inkscape:current-layer="svg2" />
  <path
     d="m 24 1 c -1.721 0 -3.387 0.204 -5 0.563 c -1.384 0.307 -2.721 0.738 -4 1.279 l 0 42.32 c 1.279 0.541 2.616 0.972 4 1.279 c 1.613 0.358 3.279 0.564 5 0.564 c 1.721 0 3.387 -0.205 5 -0.564 c 1.384 -0.307 2.721 -0.738 4 -1.279 l 0 -42.32 c -1.279 -0.541 -2.616 -0.972 -4 -1.279 c -1.613 -0.358 -3.279 -0.563 -5 -0.563 z"
     style="fill:#9add9c;fill-opacity:1;stroke:none;fill-rule:nonzero"
     id="path12" />
  <path
     d="m 15 2.842 c -2.196 0.929 -4.219 2.187 -6 3.721 c -4.897 4.218 -8 10.468 -8 17.439 c 0 6.971 3.103 13.219 8 17.438 l 0 -0.002 c 1.781 1.534 3.804 2.791 6 3.721 l 0 -42.32 z"
     style="fill:#ed8e68;fill-opacity:1;stroke:none;fill-rule:nonzero"
     id="path14" />
  <path
     d="m 33 2.842 l 0 42.32 c 2.196 -0.929 4.219 -2.187 6 -3.721 c 4.897 -4.218 8 -10.466 8 -17.438 c 0 -6.971 -3.103 -13.22 -8 -17.438 c -1.781 -1.534 -3.804 -2.791 -6 -3.721 z"
     style="fill:#9ab9dd;fill-opacity:1;stroke:none;fill-rule:nonzero"
     id="path16" />
  <path
     d="m 20 33 c 13 -1 13 -17 0 -18 9 2 9 16 0 18 z"
     style="fill:#2d2d2d;opacity:1;fill-opacity:1;stroke:none;fill-rule:evenodd"
     id="path24" />
  <circle
     cx="19"
     cy="24"
     r="5"
     style="fill:#2d2d2d;opacity:1;fill-opacity:1;stroke:none;fill-rule:nonzero"
     id="circle26" />
  <path
     d="m 20 39 c 21 -3 21 -27 0 -30 17 4 17 26 0 30"
     style="fill:#2d2d2d;opacity:1;fill-opacity:1;stroke:none;fill-rule:evenodd"
     id="path28" />
  <rect
     width="2"
     height="2"
     x="18"
     y="26"
     style="fill:#f9f9f9;opacity:1;fill-opacity:1;stroke:none;fill-rule:nonzero"
     id="rect30" />
  <path
     d="m 18 25 2 0 c 0 -0.555 1.502 -1.131 1.467 -2.627 c -0.045 -1.938 -2.618 -2.565 -4.467 -1.373 l 0 2 c 1.51 -1.191 2.165 -1 2.535 -0.46 c 0.505 0.738 -1.535 0.46 -1.535 2.46"
     style="fill:#f9f9f9;opacity:1;fill-opacity:1;stroke:none;fill-rule:evenodd"
     id="path32" />
</svg>
