<?xml version="1.0" encoding="UTF-8" standalone="no"?>
<svg
   xmlns:dc="http://purl.org/dc/elements/1.1/"
   xmlns:cc="http://creativecommons.org/ns#"
   xmlns:rdf="http://www.w3.org/1999/02/22-rdf-syntax-ns#"
   xmlns:svg="http://www.w3.org/2000/svg"
   xmlns="http://www.w3.org/2000/svg"
   xmlns:sodipodi="http://sodipodi.sourceforge.net/DTD/sodipodi-0.dtd"
   xmlns:inkscape="http://www.inkscape.org/namespaces/inkscape"
   viewBox="0 0 48 48"
   id="svg2"
   version="1.1"
   inkscape:version="0.91 r13725"
   sodipodi:docname="mkvmergeGUI.svg">
  <metadata
     id="metadata53">
    <rdf:RDF>
      <cc:Work
         rdf:about="">
        <dc:format>image/svg+xml</dc:format>
        <dc:type
           rdf:resource="http://purl.org/dc/dcmitype/StillImage" />
        <dc:title></dc:title>
      </cc:Work>
    </rdf:RDF>
  </metadata>
  <sodipodi:namedview
     pagecolor="#ffffff"
     bordercolor="#666666"
     borderopacity="1"
     objecttolerance="10"
     gridtolerance="10"
     guidetolerance="10"
     inkscape:pageopacity="0"
     inkscape:pageshadow="2"
     inkscape:window-width="1321"
     inkscape:window-height="744"
     id="namedview51"
     showgrid="false"
     inkscape:zoom="11.984375"
     inkscape:cx="21.468927"
     inkscape:cy="24"
     inkscape:window-x="39"
     inkscape:window-y="24"
     inkscape:window-maximized="1"
     inkscape:current-layer="svg2" />
  <defs
     id="defs4">
    <linearGradient
       id="linearGradient3764"
       x2="47"
       gradientUnits="userSpaceOnUse"
       x1="1"
       gradientTransform="matrix(0 -1 1 0 -.0000015 48)">
      <stop
         style="stop-color:#e4e4e4"
         id="stop7" />
      <stop
         offset="1"
         style="stop-color:#eee"
         id="stop9" />
    </linearGradient>
  </defs>
  <g
     id="g19">
    <path
       d="m24 1c12.703 0 23 10.297 23 23s-10.297 23-23 23-23-10.297-23-23 10.297-23 23-23z"
       style="fill:url(#linearGradient3764)"
       id="path21" />
  </g>
  <g
     transform="matrix(1.1 0 0 1.1 -133.14 20.869)"
     id="g39">
    <path
       d="m 363.44 521.53 a 35.644 48.04 0 1 1 -71.29 0 35.644 48.04 0 1 1 71.29 0 z"
       transform="matrix(.20817 -.12508 .12508 .20817 9.9461 -64.705)"
       style="fill:none;stroke:#474747;stroke-width:4"
       id="path41" />
    <path
       d="m 24.594 17 c -4.247 0 -7.688 3.44 -7.688 7.688 s 3.44 7.688 7.688 7.688 7.688 -3.44 7.688 -7.688 -3.44 -7.688 -7.688 -7.688 z m -1.375 4.063 c 2.888 0 5.25 2.331 5.25 5.219 0 2.888 -2.362 5.25 -5.25 5.25 s -5.219 -2.362 -5.219 -5.25 2.331 -5.219 5.219 -5.219 z"
       transform="matrix(.90913 0 0 .90913 121.04 -18.972)"
       style="fill:#462aae"
       id="path43" />
    <path
       d="m 129.17 3.535 s -2.728 2.605 -2.515 4.232 c 0.294 2.244 3.112 2.602 5.336 2.576 5.392 -0.062 24.596 -6.363 24.533 -13.922 -0.02 -2.444 -4.416 -2.66 -4.416 -2.515 0 0 3.26 0.818 3.189 2.392 -0.265 5.867 -16.305 12.454 -23.429 12.634 -1.495 0.038 -3.576 -0.284 -4.171 -1.656 -0.533 -1.23 1.472 -3.741 1.472 -3.741 z"
       style="fill:#474747"
       id="path45" />
    <path
       d="m 386.38 502.08 a 18.18 18.18 0 1 1 -36.37 0 18.18 18.18 0 1 1 36.37 0 z"
       transform="matrix(.18720 0 0 .18720 78.43 -97.48)"
       style="fill:#c4303d"
       id="path47" />
    <path
       d="m 386.38 502.08 a 18.18 18.18 0 1 1 -36.37 0 18.18 18.18 0 1 1 36.37 0 z"
       transform="matrix(.11974 0 0 .11974 95.204 -52.293)"
       style="fill:#606060"
       id="path49" />
  </g>
</svg>
