<?xml version="1.0" encoding="UTF-8" standalone="no"?>
<svg
   xmlns:dc="http://purl.org/dc/elements/1.1/"
   xmlns:cc="http://creativecommons.org/ns#"
   xmlns:rdf="http://www.w3.org/1999/02/22-rdf-syntax-ns#"
   xmlns:svg="http://www.w3.org/2000/svg"
   xmlns="http://www.w3.org/2000/svg"
   xmlns:sodipodi="http://sodipodi.sourceforge.net/DTD/sodipodi-0.dtd"
   xmlns:inkscape="http://www.inkscape.org/namespaces/inkscape"
   viewBox="0 0 48 48"
   id="svg2"
   version="1.1"
   inkscape:version="0.91 r13725"
   sodipodi:docname="pdfshuffler.svg">
  <metadata
     id="metadata43">
    <rdf:RDF>
      <cc:Work
         rdf:about="">
        <dc:format>image/svg+xml</dc:format>
        <dc:type
           rdf:resource="http://purl.org/dc/dcmitype/StillImage" />
        <dc:title></dc:title>
      </cc:Work>
    </rdf:RDF>
  </metadata>
  <sodipodi:namedview
     pagecolor="#ffffff"
     bordercolor="#666666"
     borderopacity="1"
     objecttolerance="10"
     gridtolerance="10"
     guidetolerance="10"
     inkscape:pageopacity="0"
     inkscape:pageshadow="2"
     inkscape:window-width="1321"
     inkscape:window-height="744"
     id="namedview41"
     showgrid="false"
     inkscape:zoom="11.984375"
     inkscape:cx="21.468927"
     inkscape:cy="24"
     inkscape:window-x="39"
     inkscape:window-y="24"
     inkscape:window-maximized="1"
     inkscape:current-layer="svg2" />
  <defs
     id="defs4">
    <linearGradient
       id="linearGradient4325"
       y1="1"
       x2="0"
       y2="47"
       gradientUnits="userSpaceOnUse">
      <stop
         style="stop-color:#555;stop-opacity:1"
         id="stop7" />
      <stop
         offset="1"
         style="stop-color:#4b4b4b;stop-opacity:1"
         id="stop9" />
    </linearGradient>
  </defs>
  <g
     style="fill:#e3f2fd"
     id="g19">
    <path
       d="m 24 1 c 12.703 0 23 10.297 23 23 c 0 12.703 -10.297 23 -23 23 -12.703 0 -23 -10.297 -23 -23 0 -12.703 10.297 -23 23 -23 z"
       style="fill:#e3f2fd;fill-opacity:1"
       id="path21" />
  </g>
  <g
     id="g31">
    <path
       d="m 24.502 10.906 c -0.423 -0.355 -1.044 -0.306 -1.393 0.111 l -12.881 15.351 c -0.349 0.416 -0.29 1.036 0.133 1.391 l 10.731 9 c 0.423 0.355 1.044 0.306 1.393 -0.111 l 12.881 -15.351 c 0.349 -0.416 0.29 -1.036 -0.133 -1.391 l -10.731 -9"
       style="fill:#f95;opacity:1;fill-opacity:1;stroke:none;fill-rule:nonzero"
       id="path33" />
    <path
       d="m 21.77 11.1 c -0.519 -0.189 -1.085 0.07 -1.271 0.581 l -6.854 18.831 c -0.186 0.511 0.082 1.073 0.601 1.262 l 13.163 4.791 c 0.519 0.189 1.085 -0.07 1.271 -0.581 l 6.854 -18.831 c 0.186 -0.511 -0.082 -1.073 -0.601 -1.262 l -13.163 -4.791"
       style="fill:#37c871;opacity:1;fill-opacity:1;stroke:none;fill-rule:nonzero"
       id="path35" />
    <path
       d="m 20.996 13 c -0.552 0 -0.996 0.437 -0.996 0.98 l 0 20.04 c 0 0.544 0.444 0.98 0.996 0.98 l 14.01 0 c 0.552 0 0.996 -0.437 0.996 -0.98 l 0 -20.04 c 0 -0.544 -0.444 -0.98 -0.996 -0.98 l -14.01 0 z"
       style="fill:#5f8dd3;opacity:1;fill-opacity:1;stroke:none;fill-rule:nonzero"
       id="path37" />
    <path
       d="m 35.21 25.931 c -0.166 -0.312 -0.424 -0.57 -2.542 -0.506 -0.72 0.02 -1.212 0.045 -1.624 0.082 -0.752 -0.43 -1.493 -0.98 -2.057 -1.654 -0.647 -0.775 -1.046 -1.67 -1.303 -2.549 0.403 -1.798 0.346 -2.999 0.328 -3.256 -0.002 -0.034 -0.005 -0.055 -0.005 -0.055 0 0 -0.002 0.007 -0.002 0.007 -0.025 -0.176 -0.125 -0.82 -0.328 -1.023 -0.237 -0.232 -0.444 -0.237 -0.681 0.166 -0.234 0.403 -0.342 1.529 -0.148 2.611 0.061 0.351 0.191 0.854 0.367 1.406 -0.143 0.515 -0.303 1.055 -0.474 1.591 -0.535 1.668 -1.506 3.386 -2.328 4.713 -0.15 0.048 -1.096 0.387 -2.253 1.399 -1.262 1.105 -0.877 1.659 -0.579 1.827 0.301 0.171 1.134 0.829 3.982 -4.076 0.996 -1.718 1.591 -3.283 1.946 -4.6 0.351 0.925 0.802 1.866 1.308 2.454 0.353 0.41 0.834 0.8 1.369 1.146 -0.449 0.073 -0.943 0.173 -1.732 0.319 -1.948 0.362 -2.912 1.148 -2.912 1.148 0 0 2.615 -0.843 5.197 -1.134 0.829 0.458 1.727 0.809 2.488 0.964 1.456 0.299 1.9 -0.399 1.9 -0.399 0.059 -0.064 0.257 -0.319 0.086 -0.581 m 0 0"
       style="fill:#d5e5ff;fill-opacity:1;stroke:none;fill-rule:nonzero"
       id="path39" />
  </g>
</svg>
