<?xml version="1.0" encoding="UTF-8" standalone="no"?>
<svg
   xmlns:dc="http://purl.org/dc/elements/1.1/"
   xmlns:cc="http://creativecommons.org/ns#"
   xmlns:rdf="http://www.w3.org/1999/02/22-rdf-syntax-ns#"
   xmlns:svg="http://www.w3.org/2000/svg"
   xmlns="http://www.w3.org/2000/svg"
   xmlns:sodipodi="http://sodipodi.sourceforge.net/DTD/sodipodi-0.dtd"
   xmlns:inkscape="http://www.inkscape.org/namespaces/inkscape"
   viewBox="0 0 48 48"
   id="svg2"
   version="1.1"
   inkscape:version="0.91 r13725"
   sodipodi:docname="phpmyadmin.svg">
  <metadata
     id="metadata57">
    <rdf:RDF>
      <cc:Work
         rdf:about="">
        <dc:format>image/svg+xml</dc:format>
        <dc:type
           rdf:resource="http://purl.org/dc/dcmitype/StillImage" />
        <dc:title></dc:title>
      </cc:Work>
    </rdf:RDF>
  </metadata>
  <sodipodi:namedview
     pagecolor="#ffffff"
     bordercolor="#666666"
     borderopacity="1"
     objecttolerance="10"
     gridtolerance="10"
     guidetolerance="10"
     inkscape:pageopacity="0"
     inkscape:pageshadow="2"
     inkscape:window-width="1321"
     inkscape:window-height="744"
     id="namedview55"
     showgrid="false"
     inkscape:zoom="11.984375"
     inkscape:cx="21.468927"
     inkscape:cy="24"
     inkscape:window-x="39"
     inkscape:window-y="24"
     inkscape:window-maximized="1"
     inkscape:current-layer="svg2" />
  <defs
     id="defs4">
    <linearGradient
       id="linearGradient3764"
       x1="1"
       x2="47"
       gradientUnits="userSpaceOnUse"
       gradientTransform="matrix(0,-1,1,0,-1.5e-6,47.999998)">
      <stop
         style="stop-color:#527fb2;stop-opacity:1"
         id="stop7" />
      <stop
         offset="1"
         style="stop-color:#5f88b8;stop-opacity:1"
         id="stop9" />
    </linearGradient>
  </defs>
  <g
     id="g19">
    <path
       d="m 24 1 c 12.703 0 23 10.297 23 23 c 0 12.703 -10.297 23 -23 23 -12.703 0 -23 -10.297 -23 -23 0 -12.703 10.297 -23 23 -23 z"
       style="fill:url(#linearGradient3764);fill-opacity:1"
       id="path21" />
  </g>
  <g
     id="g39">
    <g
       id="g41">
      <!-- color: #5f88b8 -->
      <g
         id="g43">
        <path
           d="m 10 29.801 l 2.207 -10.785 l 5.105 0 c 2.207 0.137 3.309 1.199 3.309 3.063 c 0 3.195 -2.621 5.05 -4.965 4.926 l -2.484 0 l -0.555 2.797 l -2.621 0 m 3.727 -4.793 l 0.691 -3.992 l 1.793 0 c 0.969 0 1.656 0.398 1.656 1.199 c -0.141 2.262 -1.242 2.66 -2.484 2.793 m -1.656 0"
           style="fill:#fff;fill-opacity:1;stroke:none;fill-rule:evenodd"
           id="path45" />
        <path
           d="m 19.797 27 l 2.207 -10.781 l 2.621 0 l -0.551 2.793 l 2.484 0 c 2.207 0.137 3.035 1.199 2.758 2.531 l -0.965 5.457 l -2.762 0 l 0.969 -4.926 c 0.137 -0.664 0.137 -1.066 -0.832 -1.066 l -2.066 0 l -1.242 5.988 l -2.621 0 m 0 0.004"
           style="fill:#fff;fill-opacity:1;stroke:none;fill-rule:nonzero"
           id="path47" />
        <path
           d="m 28.13 29.801 l 2.211 -10.785 l 5.105 0 c 2.207 0.137 3.309 1.199 3.309 3.063 c 0 3.195 -2.621 5.05 -4.969 4.926 l -2.484 0 l -0.551 2.797 m 1.105 -4.793 l 0.691 -3.992 l 1.793 0 c 0.965 0 1.652 0.398 1.652 1.199 c -0.137 2.262 -1.238 2.66 -2.484 2.793 m -1.652 0"
           style="fill:#fff;fill-opacity:1;stroke:none;fill-rule:evenodd"
           id="path49" />
      </g>
    </g>
  </g>
</svg>
