<?xml version="1.0" encoding="UTF-8" standalone="no"?>
<svg
   xmlns:dc="http://purl.org/dc/elements/1.1/"
   xmlns:cc="http://creativecommons.org/ns#"
   xmlns:rdf="http://www.w3.org/1999/02/22-rdf-syntax-ns#"
   xmlns:svg="http://www.w3.org/2000/svg"
   xmlns="http://www.w3.org/2000/svg"
   xmlns:sodipodi="http://sodipodi.sourceforge.net/DTD/sodipodi-0.dtd"
   xmlns:inkscape="http://www.inkscape.org/namespaces/inkscape"
   viewBox="0 0 48 48"
   id="svg2"
   version="1.1"
   inkscape:version="0.91 r13725"
   sodipodi:docname="psensor.svg">
  <metadata
     id="metadata53">
    <rdf:RDF>
      <cc:Work
         rdf:about="">
        <dc:format>image/svg+xml</dc:format>
        <dc:type
           rdf:resource="http://purl.org/dc/dcmitype/StillImage" />
        <dc:title></dc:title>
      </cc:Work>
    </rdf:RDF>
  </metadata>
  <sodipodi:namedview
     pagecolor="#ffffff"
     bordercolor="#666666"
     borderopacity="1"
     objecttolerance="10"
     gridtolerance="10"
     guidetolerance="10"
     inkscape:pageopacity="0"
     inkscape:pageshadow="2"
     inkscape:window-width="1321"
     inkscape:window-height="744"
     id="namedview51"
     showgrid="false"
     inkscape:zoom="11.984375"
     inkscape:cx="21.468927"
     inkscape:cy="24"
     inkscape:window-x="39"
     inkscape:window-y="24"
     inkscape:window-maximized="1"
     inkscape:current-layer="svg2" />
  <defs
     id="defs4">
    <linearGradient
       id="linearGradient3764"
       x1="1"
       x2="47"
       gradientUnits="userSpaceOnUse"
       gradientTransform="matrix(0,-1,1,0,-1.5e-6,47.999998)">
      <stop
         style="stop-color:#e4e4e4;stop-opacity:1"
         id="stop7" />
      <stop
         offset="1"
         style="stop-color:#eee;stop-opacity:1"
         id="stop9" />
    </linearGradient>
  </defs>
  <g
     id="g19">
    <path
       d="m 24 1 c 12.703 0 23 10.297 23 23 c 0 12.703 -10.297 23 -23 23 -12.703 0 -23 -10.297 -23 -23 0 -12.703 10.297 -23 23 -23 z"
       style="fill:url(#linearGradient3764);fill-opacity:1"
       id="path21" />
  </g>
  <g
     id="g37">
    <g
       id="g39">
      <!-- color: #eeeeee -->
      <g
         id="g41">
        <path
           d="m 23.625 12 c -0.906 0 -1.625 0.762 -1.625 1.719 l 0 16.563 c 0 0.957 0.719 1.719 1.625 1.719 l 0.75 0 c 0.906 0 1.625 -0.762 1.625 -1.719 l 0 -4.281 l -2 0 l 0 -1 l 2 0 l 0 -2 l -2 0 l 0 -1 l 2 0 l 0 -2 l -2 0 l 0 -1 l 2 0 l 0 -2 l -2 0 l 0 -1 l 2 0 l 0 -2.281 c 0 -0.957 -0.719 -1.719 -1.625 -1.719 m -0.75 0"
           style="fill:#ec3c52;fill-opacity:1;stroke:none;fill-rule:nonzero"
           id="path43" />
        <path
           d="m 28 32 c 0.023 1.445 -0.73 2.789 -1.98 3.52 c -1.246 0.73 -2.793 0.73 -4.04 0 c -1.25 -0.73 -2 -2.074 -1.98 -3.52 c -0.023 -1.445 0.73 -2.793 1.98 -3.523 c 1.246 -0.73 2.793 -0.73 4.04 0 c 1.25 0.73 2 2.078 1.98 3.523 m 0 0"
           style="fill:#3bb9dd;fill-opacity:1;stroke:none;fill-rule:nonzero"
           id="path45" />
      </g>
    </g>
  </g>
</svg>
