<?xml version="1.0" encoding="UTF-8" standalone="no"?>
<svg
   xmlns:dc="http://purl.org/dc/elements/1.1/"
   xmlns:cc="http://creativecommons.org/ns#"
   xmlns:rdf="http://www.w3.org/1999/02/22-rdf-syntax-ns#"
   xmlns:svg="http://www.w3.org/2000/svg"
   xmlns="http://www.w3.org/2000/svg"
   xmlns:sodipodi="http://sodipodi.sourceforge.net/DTD/sodipodi-0.dtd"
   xmlns:inkscape="http://www.inkscape.org/namespaces/inkscape"
   viewBox="0 0 48 48"
   id="svg2"
   version="1.1"
   inkscape:version="0.91 r13725"
   sodipodi:docname="ptbatcher.svg">
  <metadata
     id="metadata85">
    <rdf:RDF>
      <cc:Work
         rdf:about="">
        <dc:format>image/svg+xml</dc:format>
        <dc:type
           rdf:resource="http://purl.org/dc/dcmitype/StillImage" />
        <dc:title></dc:title>
      </cc:Work>
    </rdf:RDF>
  </metadata>
  <sodipodi:namedview
     pagecolor="#ffffff"
     bordercolor="#666666"
     borderopacity="1"
     objecttolerance="10"
     gridtolerance="10"
     guidetolerance="10"
     inkscape:pageopacity="0"
     inkscape:pageshadow="2"
     inkscape:window-width="1321"
     inkscape:window-height="744"
     id="namedview83"
     showgrid="false"
     inkscape:zoom="16.948466"
     inkscape:cx="26.15257"
     inkscape:cy="40.426419"
     inkscape:window-x="39"
     inkscape:window-y="24"
     inkscape:window-maximized="1"
     inkscape:current-layer="svg2" />
  <defs
     id="defs4">
    <linearGradient
       y2="1"
       x2="0"
       y1="47"
       gradientUnits="userSpaceOnUse"
       id="linearGradient3870">
      <stop
         style="stop-color:#2483cc;stop-opacity:1"
         id="stop7" />
      <stop
         offset="1"
         style="stop-color:#50a7e9;stop-opacity:1"
         id="stop9" />
    </linearGradient>
  </defs>
  <path
     d="M 24,1 C 36.703,1 47,11.297 47,24 47,36.703 36.703,47 24,47 11.297,47 1,36.703 1,24 1,11.297 11.297,1 24,1 z"
     style="fill:url(#linearGradient3870);fill-opacity:1"
     id="path19" />
  <g
     transform="translate(-4e-8,0.5384611)"
     id="g51">
    <g
       transform="matrix(0.76923077,0,0,0.76923077,7.7692308,5.5384615)"
       style="opacity:0.8"
       id="g53">
      <path
         d="m 12 16 26 2 -10 0 -4 0 z"
         style="fill:#333;stroke:none"
         id="path55" />
      <path
         d="m 24 21 -2 5 -3 6 3 2 -1 -2 3 -6 -1 7 3 2 -1 -2 0 -4 2 -8 1 -2 -4 0 z"
         style="fill:#333;stroke:none"
         id="path57" />
      <path
         transform="matrix(1.3333333,0,0,1.3333333,-6.6666659,-1.6666662)"
         d="M 26,12.5 C 26,13.328 25.328,14 24.5,14 23.672,14 23,13.328 23,12.5 23,11.672 23.672,11 24.5,11 c 0.828,0 1.5,0.672 1.5,1.5 z"
         style="fill:#333;fill-opacity:1;stroke:none"
         id="path59" />
      <path
         d="M 26,12.5 C 26,13.328 25.328,14 24.5,14 23.672,14 23,13.328 23,12.5 23,11.672 23.672,11 24.5,11 c 0.828,0 1.5,0.672 1.5,1.5 z"
         transform="translate(2,2.5)"
         style="fill:#d6d610;fill-opacity:1;stroke:none"
         id="path61" />
    </g>
    <g
       transform="matrix(0.92307692,0,0,0.92307692,-0.076923,0.1538462)"
       id="g63">
      <path
         d="m 12 16 26 2 -10 0 -4 0 z"
         style="fill:#333;stroke:none"
         id="path65" />
      <path
         d="m 24 21 -2 5 -3 6 3 2 -1 -2 3 -6 -1 7 3 2 -1 -2 0 -4 2 -8 1 -2 -4 0 z"
         style="fill:#333;stroke:none"
         id="path67" />
      <path
         d="M 26,12.5 C 26,13.328 25.328,14 24.5,14 23.672,14 23,13.328 23,12.5 23,11.672 23.672,11 24.5,11 c 0.828,0 1.5,0.672 1.5,1.5 z"
         transform="matrix(1.3333333,0,0,1.3333333,-6.6666659,-1.6666662)"
         style="fill:#333;fill-opacity:1;stroke:none"
         id="path69" />
      <path
         transform="translate(2,2.5)"
         d="M 26,12.5 C 26,13.328 25.328,14 24.5,14 23.672,14 23,13.328 23,12.5 23,11.672 23.672,11 24.5,11 c 0.828,0 1.5,0.672 1.5,1.5 z"
         style="fill:#d6d610;fill-opacity:1;stroke:none"
         id="path71" />
    </g>
    <g
       transform="matrix(0.53846154,0,0,0.53846154,16.538462,13.615385)"
       style="opacity:0.6"
       id="g73">
      <path
         d="m 12 16 26 2 -10 0 -4 0 z"
         style="fill:#333;stroke:none"
         id="path75" />
      <path
         d="m 24 21 -2 5 -3 6 3 2 -1 -2 3 -6 -1 7 3 2 -1 -2 0 -4 2 -8 1 -2 -4 0 z"
         style="fill:#333;stroke:none"
         id="path77" />
      <path
         d="M 26,12.5 C 26,13.328 25.328,14 24.5,14 23.672,14 23,13.328 23,12.5 23,11.672 23.672,11 24.5,11 c 0.828,0 1.5,0.672 1.5,1.5 z"
         transform="matrix(1.3333333,0,0,1.3333333,-6.6666659,-1.6666662)"
         style="fill:#333;fill-opacity:1;stroke:none"
         id="path79" />
      <path
         transform="translate(2,2.5)"
         d="M 26,12.5 C 26,13.328 25.328,14 24.5,14 23.672,14 23,13.328 23,12.5 23,11.672 23.672,11 24.5,11 c 0.828,0 1.5,0.672 1.5,1.5 z"
         style="fill:#d6d610;fill-opacity:1;stroke:none"
         id="path81" />
    </g>
  </g>
</svg>
