<?xml version="1.0" encoding="UTF-8" standalone="no"?>
<svg
   xmlns:dc="http://purl.org/dc/elements/1.1/"
   xmlns:cc="http://creativecommons.org/ns#"
   xmlns:rdf="http://www.w3.org/1999/02/22-rdf-syntax-ns#"
   xmlns:svg="http://www.w3.org/2000/svg"
   xmlns="http://www.w3.org/2000/svg"
   xmlns:sodipodi="http://sodipodi.sourceforge.net/DTD/sodipodi-0.dtd"
   xmlns:inkscape="http://www.inkscape.org/namespaces/inkscape"
   version="1.1"
   viewBox="0 0 48 48"
   id="svg2"
   inkscape:version="0.91 r13725"
   sodipodi:docname="python-idle.svg">
  <metadata
     id="metadata37">
    <rdf:RDF>
      <cc:Work
         rdf:about="">
        <dc:format>image/svg+xml</dc:format>
        <dc:type
           rdf:resource="http://purl.org/dc/dcmitype/StillImage" />
        <dc:title></dc:title>
      </cc:Work>
    </rdf:RDF>
  </metadata>
  <sodipodi:namedview
     pagecolor="#ffffff"
     bordercolor="#666666"
     borderopacity="1"
     objecttolerance="10"
     gridtolerance="10"
     guidetolerance="10"
     inkscape:pageopacity="0"
     inkscape:pageshadow="2"
     inkscape:window-width="1321"
     inkscape:window-height="744"
     id="namedview35"
     showgrid="false"
     inkscape:zoom="11.984375"
     inkscape:cx="21.468927"
     inkscape:cy="27.337679"
     inkscape:window-x="39"
     inkscape:window-y="24"
     inkscape:window-maximized="1"
     inkscape:current-layer="svg2" />
  <defs
     id="defs4">
    <linearGradient
       id="linearGradient3764"
       x2="47"
       gradientUnits="userSpaceOnUse"
       x1="1"
       gradientTransform="matrix(0 -1 1 0 -.0000015 48)">
      <stop
         style="stop-color:#acacac"
         offset="0"
         id="stop7" />
      <stop
         style="stop-color:#b6b6b6"
         offset="1"
         id="stop9" />
    </linearGradient>
  </defs>
  <path
     style="opacity:.2"
     d="m31.25 2.375c8.615 3.154 14.75 11.417 14.75 21.13 0 12.426-10.07 22.5-22.5 22.5-9.708 0-17.971-6.135-21.12-14.75a23 23 0 0 0 44.875 -7 23 23 0 0 0 -16 -21.875z"
     id="path15" />
  <path
     style="fill:url(#linearGradient3764)"
     d="m24 1c12.703 0 23 10.297 23 23s-10.297 23-23 23-23-10.297-23-23 10.297-23 23-23z"
     id="path17" />
  <path
     style="fill:#3d7bab"
     d="m24 11c-4 0-6 1-6 2.75v3.25h6v1h-9.25c-1.939 0-3.75 2-3.75 6s1.811 6 3.75 6h2.25v-3.5c0-1.662 1.338-3 3-3h7c1.662 0 3-1.338 3-3v-6.75c0-1.75-2-2.75-6-2.75z"
     id="path23" />
  <path
     style="fill:#f8a22c"
     d="m23.997 37c4 0 6-1 6-2.75v-3.25h-6v-1h9.2495c1.939 0 3.753-2 3.753-6s-1.814-6-3.753-6h-2.249v3.5c0 1.662-1.338 3-3 3h-7c-1.662 0-3 1.338-3 3v6.75c0 1.75 2 2.75 6 2.75z"
     id="path25" />
  <circle
     cy="14"
     cx="21"
     r="1"
     style="fill:#f9f9f9"
     id="circle27" />
  <circle
     cy="34"
     cx="27"
     r="1"
     style="fill:#f9f9f9"
     id="circle29" />
  <path
     style="fill:#f9f9f9"
     d="m18.297 22.002-4.297 2 4.297 1.998h15.14s0.562-0.324 0.562-1.998c0-1.615-0.633-2-0.633-2h-15.07z"
     id="path33" />
</svg>
