<?xml version="1.0" encoding="UTF-8" standalone="no"?>
<svg
   xmlns:dc="http://purl.org/dc/elements/1.1/"
   xmlns:cc="http://creativecommons.org/ns#"
   xmlns:rdf="http://www.w3.org/1999/02/22-rdf-syntax-ns#"
   xmlns:svg="http://www.w3.org/2000/svg"
   xmlns="http://www.w3.org/2000/svg"
   xmlns:sodipodi="http://sodipodi.sourceforge.net/DTD/sodipodi-0.dtd"
   xmlns:inkscape="http://www.inkscape.org/namespaces/inkscape"
   viewBox="0 0 48 48"
   id="svg2"
   version="1.1"
   inkscape:version="0.91 r13725"
   sodipodi:docname="robojournal.svg">
  <metadata
     id="metadata61">
    <rdf:RDF>
      <cc:Work
         rdf:about="">
        <dc:format>image/svg+xml</dc:format>
        <dc:type
           rdf:resource="http://purl.org/dc/dcmitype/StillImage" />
        <dc:title></dc:title>
      </cc:Work>
    </rdf:RDF>
  </metadata>
  <sodipodi:namedview
     pagecolor="#ffffff"
     bordercolor="#666666"
     borderopacity="1"
     objecttolerance="10"
     gridtolerance="10"
     guidetolerance="10"
     inkscape:pageopacity="0"
     inkscape:pageshadow="2"
     inkscape:window-width="640"
     inkscape:window-height="480"
     id="namedview59"
     showgrid="false"
     inkscape:zoom="3.4570313"
     inkscape:cx="21.462211"
     inkscape:cy="16.060001"
     inkscape:window-x="49"
     inkscape:window-y="34"
     inkscape:window-maximized="0"
     inkscape:current-layer="svg2" />
  <defs
     id="defs4">
    <linearGradient
       id="linearGradient3764"
       x1="1"
       x2="47"
       gradientUnits="userSpaceOnUse"
       gradientTransform="matrix(0,-1,1,0,-1.5e-6,47.999998)">
      <stop
         style="stop-color:#e4e4e4;stop-opacity:1"
         id="stop7" />
      <stop
         offset="1"
         style="stop-color:#eee;stop-opacity:1"
         id="stop9" />
    </linearGradient>
  </defs>
  <g
     id="g19">
    <path
       d="m 24 1 c 12.703 0 23 10.297 23 23 c 0 12.703 -10.297 23 -23 23 -12.703 0 -23 -10.297 -23 -23 0 -12.703 10.297 -23 23 -23 z"
       style="fill:url(#linearGradient3764);fill-opacity:1"
       id="path21" />
  </g>
  <g
     id="g35">
    <g
       id="g37">
      <!-- color: #eeeeee -->
      <g
         id="g39">
        <path
           d="m 12 12 c 0 8.08 0 16.898 0 24 l 24 0 c 0 -24 0 -14.242 0 -24 m -24 0"
           style="fill:#fc0;fill-opacity:1;stroke:none;fill-rule:evenodd"
           id="path41" />
        <path
           d="m 13 31 c 0 1.348 0 2.816 0 4 l 22 0 c 0 -4 0 -2.375 0 -4 m -22 0"
           style="fill:#f9f9f9;fill-opacity:1;stroke:none;fill-rule:evenodd"
           id="path43" />
        <path
           d="m 12 12 c 0 6.06 0 12.672 0 18 l 24 0 c 0 -18 0 -10.699 0 -18 m -24 0"
           style="fill:#ecb200;fill-opacity:1;stroke:none;fill-rule:evenodd"
           id="path45" />
        <path
           d="m 29 20 c 0 1.344 0 2.816 0 4 l 7 0 c 0 -4 0 -2.375 0 -4 m -7 0"
           style="fill:#b99500;fill-opacity:1;stroke:none;fill-rule:evenodd"
           id="path47" />
        <path
           d="m 13 31.996 c 0 0.336 0 0.707 0 1 l 22 0 c 0 -1 0 -0.598 0 -1 m -22 0"
           style="fill:#e5e5e5;fill-opacity:1;stroke:none;fill-rule:evenodd"
           id="path49" />
        <path
           d="m 13 34 c 0 0.34 0 0.707 0 1 l 22 0 c 0 -1 0 -0.594 0 -1 m -22 0"
           style="fill:#e5e5e5;fill-opacity:1;stroke:none;fill-rule:evenodd"
           id="path51" />
        <path
           d="m 33,22 c 0.004,0.547 -0.656,0.996 -1.477,1 C 30.699,23.008 30.019,22.574 30,22.027 29.98,21.476 30.625,21.015 31.449,21 c 0.82,-0.016 1.512,0.41 1.551,0.957"
           style="fill:#ecb200;fill-opacity:1;stroke:none;fill-rule:nonzero"
           id="path53" />
      </g>
    </g>
  </g>
  <path
     inkscape:connector-curvature="0"
     id="path69"
     style="fill:#673ab7;fill-opacity:1;fill-rule:nonzero;stroke:none"
     d="m 23.11726,17.320318 9.453,-10.02 2.906,2.746 -9.453,10.02 m -2.906,-2.746" />
  <path
     inkscape:connector-curvature="0"
     id="path71"
     style="fill:#ff2d5b;fill-opacity:1;fill-rule:nonzero;stroke:none"
     d="m 32.06426,7.846318 2.898,2.746 1.684,-1.773 c 0,0 0.145,-0.633 -1.07,-1.781 -1.176,-1.109 -1.887,-0.918 -1.887,-0.918 l -1.629,1.727 m 0.004,0" />
  <path
     inkscape:connector-curvature="0"
     id="path73"
     style="fill:#ffffff;fill-opacity:1;fill-rule:nonzero;stroke:none"
     d="m 23.14026,17.290318 -1.293,4.281 4.199,-1.539 -2.906,-2.746 m 0,0.004" />
  <path
     inkscape:connector-curvature="0"
     id="path75"
     style="fill:#2d2d2d;fill-opacity:1;fill-rule:nonzero;stroke:none"
     d="m 22.48026,19.430318 -0.633,2.145 2.109,-0.758 -1.477,-1.398 m 0,0.012" />
</svg>
