<?xml version="1.0" encoding="UTF-8" standalone="no"?>
<!-- Created with Inkscape (http://www.inkscape.org/) -->

<svg
   xmlns:dc="http://purl.org/dc/elements/1.1/"
   xmlns:cc="http://creativecommons.org/ns#"
   xmlns:rdf="http://www.w3.org/1999/02/22-rdf-syntax-ns#"
   xmlns:svg="http://www.w3.org/2000/svg"
   xmlns="http://www.w3.org/2000/svg"
   xmlns:sodipodi="http://sodipodi.sourceforge.net/DTD/sodipodi-0.dtd"
   xmlns:inkscape="http://www.inkscape.org/namespaces/inkscape"
   id="svg2"
   version="1.1"
   inkscape:version="0.91 r13725"
   width="48"
   height="48"
   sodipodi:docname="searchmonkey.svg">
  <metadata
     id="metadata8">
    <rdf:RDF>
      <cc:Work
         rdf:about="">
        <dc:format>image/svg+xml</dc:format>
        <dc:type
           rdf:resource="http://purl.org/dc/dcmitype/StillImage" />
        <dc:title></dc:title>
      </cc:Work>
    </rdf:RDF>
  </metadata>
  <defs
     id="defs6">
    <clipPath
       clipPathUnits="userSpaceOnUse"
       id="clipPath3795">
      <path
         sodipodi:nodetypes="ssccccccss"
         inkscape:connector-curvature="0"
         id="path3797"
         d="m -114.08664,215.76774 c -11.72716,0 -21.21999,9.51501 -21.21999,21.24216 0,8.31146 4.77311,15.49363 11.72975,18.98047 l -6.20856,35.83229 c -0.36184,2.03713 1.43439,4.17442 3.5034,4.1686 l 24.43514,0 c 2.061606,-0.007 3.841776,-2.13875 3.481226,-4.1686 l -6.208566,-35.83229 c 6.950216,-3.48908 11.729751,-10.67373 11.729751,-18.98047 0,-11.72715 -9.515001,-21.24216 -21.242151,-21.24216 z"
         style="color:#000000;font-style:normal;font-variant:normal;font-weight:normal;font-stretch:normal;font-size:medium;line-height:normal;font-family:Sans;-inkscape-font-specification:Sans;text-indent:0;text-align:start;text-decoration:none;text-decoration-line:none;letter-spacing:normal;word-spacing:normal;text-transform:none;direction:ltr;block-progression:tb;writing-mode:lr-tb;baseline-shift:baseline;text-anchor:start;display:inline;overflow:visible;visibility:visible;fill:#653a17;fill-opacity:1;stroke:none;stroke-width:10;marker:none;enable-background:accumulate" />
    </clipPath>
    <clipPath
       clipPathUnits="userSpaceOnUse"
       id="clipPath3982">
      <path
         inkscape:connector-curvature="0"
         id="path3984"
         d="m -840.5566,-68.448561 a 48.750875,48.750875 0 0 0 -48.02479,49.4438 l 0,350.008901 c -24.90931,-10.35528 -53.16636,-16.18564 -83.05671,-16.18564 -100.9275,0 -182.7425,66.58807 -182.7425,148.7305 0,82.14243 81.815,148.7305 182.7425,148.7305 100.92752,0 182.78685,-66.58807 182.78685,-148.7305 0,-8.96949 -1.01292,-17.76397 -2.88237,-26.29612 -0.003,-0.0142 0.003,-0.0302 0,-0.0444 a 48.756465,48.756465 0 0 0 0.66516,-7.67155 l 0,-292.58315 c 36.92493,34.63631 76.48474,37.71871 105.89399,51.66101 33.62532,15.94106 55.76335,26.70553 68.91091,38.13604 -12.74477,-155.654308 -56.66368,-65.8166 -177.64293,-262.650727 a 48.750875,48.750875 0 0 0 -46.65011,-32.548654 z"
         style="fill:#63d376;fill-opacity:1;fill-rule:evenodd;stroke:none" />
    </clipPath>
  </defs>
  <sodipodi:namedview
     pagecolor="#ffffff"
     bordercolor="#666666"
     borderopacity="1"
     objecttolerance="10"
     gridtolerance="10"
     guidetolerance="10"
     inkscape:pageopacity="0"
     inkscape:pageshadow="2"
     inkscape:window-width="1321"
     inkscape:window-height="744"
     id="namedview4"
     showgrid="false"
     inkscape:zoom="7.9318819"
     inkscape:cx="23.937089"
     inkscape:cy="23.169397"
     inkscape:window-x="39"
     inkscape:window-y="24"
     inkscape:window-maximized="1"
     inkscape:current-layer="svg2"
     showguides="false">
    <inkscape:grid
       type="xygrid"
       id="grid4171" />
  </sodipodi:namedview>
  <g
     id="g4324"
     transform="translate(5e-4,-464)" />
  <g
     id="g4326"
     transform="translate(5e-4,-464)" />
  <g
     id="g4328"
     transform="translate(5e-4,-464)" />
  <g
     id="g4330"
     transform="translate(5e-4,-464)" />
  <g
     id="g4332"
     transform="translate(5e-4,-464)" />
  <g
     id="g4334"
     transform="translate(5e-4,-464)" />
  <g
     id="g4336"
     transform="translate(5e-4,-464)" />
  <g
     id="g4338"
     transform="translate(5e-4,-464)" />
  <g
     id="g4340"
     transform="translate(5e-4,-464)" />
  <g
     id="g4342"
     transform="translate(5e-4,-464)" />
  <g
     id="g4344"
     transform="translate(5e-4,-464)" />
  <g
     id="g4346"
     transform="translate(5e-4,-464)" />
  <g
     id="g4348"
     transform="translate(5e-4,-464)" />
  <g
     id="g4350"
     transform="translate(5e-4,-464)" />
  <g
     id="g4352"
     transform="translate(5e-4,-464)" />
  <g
     id="g4581"
     transform="matrix(0.09235189,0,0,0.09235189,0.35791616,0.35791616)">
    <circle
       r="252.93352"
       cy="256"
       cx="256"
       id="path4169"
       style="opacity:1;fill:#00c853;fill-opacity:1;stroke:none" />
    <path
       id="path4296"
       d="m 94.0415,206.163 -21.28,-31.283 c -42.806,2.777 -75.373,39.862 -72.596,82.668 1.345,20.736 10.685,39.707 26.298,53.419 14.319,12.574 32.341,19.345 51.224,19.345 1.707,0 3.425,-0.055 5.145,-0.167 l 11.209,-32.35 0,-91.632 z"
       style="fill:#ff9800;fill-opacity:1"
       inkscape:connector-curvature="0" />
    <path
       id="path4298"
       d="m 80.8045,298.865 c -12.381,0.806 -24.334,-3.263 -33.655,-11.45 -9.323,-8.187 -14.899,-19.513 -15.702,-31.894 -1.658,-25.557 17.786,-47.7 43.344,-49.357 l 6.013,92.701 z"
       style="fill:#d37b93"
       inkscape:connector-curvature="0" />
    <path
       id="path4300"
       d="m 417.9595,206.163 21.279,-31.281 c 42.806,2.776 75.373,39.861 72.596,82.667 -1.346,20.736 -10.685,39.708 -26.299,53.419 -14.319,12.573 -32.341,19.344 -51.224,19.344 -1.707,0 -3.425,-0.055 -5.144,-0.166 l -11.209,-32.35 0,-91.633"
       style="fill:#e65100;fill-opacity:1"
       inkscape:connector-curvature="0" />
    <path
       id="path4302"
       d="m 431.1965,298.865 c 12.381,0.806 24.334,-3.263 33.655,-11.45 9.323,-8.187 14.899,-19.513 15.702,-31.894 1.658,-25.557 -17.786,-47.7 -43.344,-49.358 l -6.013,92.702"
       style="fill:#9d5b6e"
       inkscape:connector-curvature="0" />
    <path
       id="path4304"
       d="M 173.7165,429.55 C 99.7105,396.915 51.8915,323.576 51.8915,242.71 c 0,-112.547 91.562,-204.109 204.109,-204.109 112.546,0 204.108,91.562 204.108,204.109 0,80.863 -47.817,154.201 -121.819,186.838 l -164.573,0.002"
       style="fill:#ff9800"
       inkscape:connector-curvature="0" />
    <path
       id="path4306"
       d="m 256.0005,473.399 c -57.766,0 -104.762,-46.996 -104.762,-104.763 0,-10.026 1.378,-19.793 4.113,-29.204 -36.004,-13.075 -61.309,-47.785 -61.309,-87.38 0,-51.233 41.682,-92.915 92.915,-92.915 26.865,0 51.701,11.346 69.044,30.666 17.345,-19.32 42.179,-30.666 69.044,-30.666 51.233,0 92.914,41.682 92.914,92.915 0,39.594 -25.303,74.305 -61.309,87.38 2.734,9.41 4.114,19.178 4.114,29.204 -10e-4,57.767 -46.998,104.763 -104.764,104.763"
       style="fill:#efc589"
       inkscape:connector-curvature="0" />
    <path
       inkscape:connector-curvature="0"
       style="fill:#333333"
       d="m 206.8695,378.547 c 0,-9.058 7.261,-16.393 16.183,-16.393 8.934,0 16.194,7.335 16.194,16.393 0,9.056 -7.26,16.399 -16.194,16.399 -8.922,-0.001 -16.183,-7.343 -16.183,-16.399 z"
       id="path4310" />
    <path
       inkscape:connector-curvature="0"
       style="fill:#333333"
       d="m 339.0205,253.796 c 0,-11.597 -9.288,-20.998 -20.724,-20.998 -11.451,0 -20.738,9.401 -20.738,20.998 0,11.597 9.288,20.998 20.738,20.998 11.436,0 20.724,-9.4 20.724,-20.998"
       id="path4314" />
    <path
       id="path4316"
       d="m 484.4915,311.871 c -0.011,0.009 -0.023,0.02 -0.034,0.029 0.011,-0.009 0.021,-0.019 0.034,-0.029 m 0.164,-0.139 c -0.02,0.018 -0.039,0.032 -0.059,0.05 0.02,-0.018 0.039,-0.034 0.059,-0.05 m 0.161,-0.138 c -0.023,0.02 -0.045,0.038 -0.068,0.057 0.024,-0.02 0.045,-0.038 0.068,-0.057 m 0.168,-0.144 c -0.026,0.023 -0.053,0.046 -0.08,0.069 0.026,-0.023 0.053,-0.046 0.08,-0.069 m 0.164,-0.143 c -0.029,0.025 -0.059,0.051 -0.088,0.076 0.029,-0.024 0.059,-0.05 0.088,-0.076 m 0.173,-0.15 c -0.034,0.03 -0.068,0.06 -0.102,0.089 0.035,-0.03 0.068,-0.059 0.102,-0.089 m 0.215,-0.188 c -0.053,0.047 -0.106,0.093 -0.159,0.139 0.053,-0.046 0.107,-0.093 0.159,-0.139 m 26.314,-53.657 c 0,0.005 -0.001,0.012 -0.001,0.017 0.001,-0.007 0.001,-0.009 0.001,-0.017 m 0.014,-0.235 c 0,0.008 -0.001,0.015 -0.001,0.023 0,-0.007 0,-0.015 0.001,-0.023 m 0.014,-0.232 c 0,0.007 -10e-4,0.013 -10e-4,0.02 0,-0.004 0,-0.014 10e-4,-0.02 m 0.012,-0.23 c 0,0.005 -10e-4,0.01 -10e-4,0.016 0,-0.004 0,-0.01 10e-4,-0.016"
       style="fill:#bdbdbf"
       inkscape:connector-curvature="0" />
    <path
       id="path4318"
       d="m 256.5225,38.606 0,150.62 c 17.319,-18.969 41.927,-30.089 68.522,-30.089 51.233,0 92.914,41.682 92.914,92.915 0,39.594 -25.303,74.305 -61.309,87.38 2.734,9.41 4.114,19.178 4.114,29.204 0,21.85 -6.724,42.159 -18.21,58.966 43.75,-20.502 77.936,-55.397 97.905,-97.545 0.003,0 0.005,0 0.008,-0.001 5.335,-11.26 9.654,-23.035 12.869,-35.193 4.438,-16.778 6.773,-34.281 6.773,-52.153 0,-10.242 -0.758,-20.304 -2.22,-30.146 -1.865,-12.541 -4.875,-24.718 -8.92,-36.413 -0.004,-0.001 -0.007,-0.001 -0.013,-0.002 C 421.3485,96.342 345.5465,38.831 256.5225,38.606"
       style="fill:#e65100"
       inkscape:connector-curvature="0" />
    <path
       id="path4320"
       d="m 288.8265,395.068 c -9.009,0 -16.316,-7.397 -16.316,-16.521 0,-9.125 7.308,-16.522 16.316,-16.522 8.998,0 16.306,7.397 16.306,16.522 -10e-4,9.124 -7.309,16.521 -16.306,16.521 m 29.47,-120.274 c -11.451,0 -20.738,-9.401 -20.738,-20.998 0,-11.597 9.288,-20.998 20.738,-20.998 11.436,0 20.724,9.401 20.724,20.998 0,11.597 -9.288,20.998 -20.724,20.998 m 6.748,-115.657 c -26.596,0 -51.203,11.12 -68.522,30.089 l 0,284.165 c 35.698,-0.176 67.231,-18.294 86.022,-45.785 0.003,-10e-4 0.006,-0.003 0.008,-0.004 11.487,-16.807 18.211,-37.116 18.211,-58.966 0,-10.026 -1.378,-19.793 -4.114,-29.204 36.006,-13.075 61.31,-47.784 61.31,-87.379 0,-51.234 -41.682,-92.916 -92.915,-92.916"
       style="fill:#b19267"
       inkscape:connector-curvature="0" />
    <path
       id="path4322"
       d="m 288.8265,362.026 c -9.009,0 -16.316,7.397 -16.316,16.522 0,9.124 7.308,16.521 16.316,16.521 8.998,0 16.306,-7.397 16.306,-16.521 -10e-4,-9.126 -7.309,-16.522 -16.306,-16.522"
       style="fill:#333333"
       inkscape:connector-curvature="0" />
    <g
       style="fill:#7b1fa2"
       transform="matrix(-0.33003001,0,0,0.33003001,243.13703,196.27395)"
       id="g4558">
      <g
         style="fill:#7b1fa2"
         id="g4514">
        <g
           style="fill:#7b1fa2"
           id="g4516">
          <path
             style="fill:#7b1fa2"
             inkscape:connector-curvature="0"
             d="M 363.909,181.955 C 363.909,81.473 282.44,0 181.956,0 81.474,0 0.001,81.473 0.001,181.955 c 0,100.482 81.473,181.951 181.955,181.951 100.484,0 181.953,-81.469 181.953,-181.951 z M 181.956,318.416 c -75.252,0 -136.465,-61.208 -136.465,-136.46 0,-75.252 61.213,-136.465 136.465,-136.465 75.25,0 136.468,61.213 136.468,136.465 0,75.252 -61.218,136.46 -136.468,136.46 z"
             id="path4518" />
          <path
             style="fill:#7b1fa2"
             inkscape:connector-curvature="0"
             d="M 471.882,407.567 360.567,296.243 c -16.586,25.795 -38.536,47.734 -64.331,64.321 L 407.56,471.888 c 17.772,17.768 46.587,17.768 64.321,0 17.773,-17.739 17.773,-46.554 0.001,-64.321 z"
             id="path4520" />
        </g>
      </g>
      <g
         style="fill:#7b1fa2"
         id="g4522" />
      <g
         style="fill:#7b1fa2"
         id="g4524" />
      <g
         style="fill:#7b1fa2"
         id="g4526" />
      <g
         style="fill:#7b1fa2"
         id="g4528" />
      <g
         style="fill:#7b1fa2"
         id="g4530" />
      <g
         style="fill:#7b1fa2"
         id="g4532" />
      <g
         style="fill:#7b1fa2"
         id="g4534" />
      <g
         style="fill:#7b1fa2"
         id="g4536" />
      <g
         style="fill:#7b1fa2"
         id="g4538" />
      <g
         style="fill:#7b1fa2"
         id="g4540" />
      <g
         style="fill:#7b1fa2"
         id="g4542" />
      <g
         style="fill:#7b1fa2"
         id="g4544" />
      <g
         style="fill:#7b1fa2"
         id="g4546" />
      <g
         style="fill:#7b1fa2"
         id="g4548" />
      <g
         style="fill:#7b1fa2"
         id="g4550" />
    </g>
    <path
       id="path4579"
       d="m 205.0205,253.796 c 0,-11.597 -9.288,-20.998 -20.724,-20.998 -11.451,0 -20.738,9.401 -20.738,20.998 0,11.597 9.288,20.998 20.738,20.998 11.436,0 20.724,-9.4 20.724,-20.998"
       style="fill:#333333"
       inkscape:connector-curvature="0" />
  </g>
</svg>
