<?xml version="1.0" encoding="UTF-8" standalone="no"?>
<svg
   xmlns:dc="http://purl.org/dc/elements/1.1/"
   xmlns:cc="http://creativecommons.org/ns#"
   xmlns:rdf="http://www.w3.org/1999/02/22-rdf-syntax-ns#"
   xmlns:svg="http://www.w3.org/2000/svg"
   xmlns="http://www.w3.org/2000/svg"
   xmlns:sodipodi="http://sodipodi.sourceforge.net/DTD/sodipodi-0.dtd"
   xmlns:inkscape="http://www.inkscape.org/namespaces/inkscape"
   viewBox="0 0 48 48"
   id="svg2"
   version="1.1"
   inkscape:version="0.91 r13725"
   sodipodi:docname="sqliteman.svg">
  <metadata
     id="metadata49">
    <rdf:RDF>
      <cc:Work
         rdf:about="">
        <dc:format>image/svg+xml</dc:format>
        <dc:type
           rdf:resource="http://purl.org/dc/dcmitype/StillImage" />
        <dc:title></dc:title>
      </cc:Work>
    </rdf:RDF>
  </metadata>
  <sodipodi:namedview
     pagecolor="#ffffff"
     bordercolor="#666666"
     borderopacity="1"
     objecttolerance="10"
     gridtolerance="10"
     guidetolerance="10"
     inkscape:pageopacity="0"
     inkscape:pageshadow="2"
     inkscape:window-width="1321"
     inkscape:window-height="744"
     id="namedview47"
     showgrid="false"
     inkscape:zoom="11.984375"
     inkscape:cx="21.468927"
     inkscape:cy="24"
     inkscape:window-x="39"
     inkscape:window-y="24"
     inkscape:window-maximized="1"
     inkscape:current-layer="svg2" />
  <defs
     id="defs4">
    <linearGradient
       id="linearGradient3764"
       x1="1"
       x2="47"
       gradientUnits="userSpaceOnUse"
       gradientTransform="matrix(0,-1,1,0,-1.5e-6,47.999998)">
      <stop
         style="stop-color:#e4e4e4;stop-opacity:1"
         id="stop7" />
      <stop
         offset="1"
         style="stop-color:#eee;stop-opacity:1"
         id="stop9" />
    </linearGradient>
  </defs>
  <g
     id="g23">
    <g
       id="g25">
      <g
         transform="translate(1,1)"
         id="g27">
        <g
           style="opacity:0.1"
           id="g29">
          <!-- color: #eeeeee -->
        </g>
      </g>
    </g>
  </g>
  <g
     id="g4189">
    <g
       id="g19">
      <path
         id="path21"
         style="fill:url(#linearGradient3764);fill-opacity:1"
         d="m 24 1 c 12.703 0 23 10.297 23 23 c 0 12.703 -10.297 23 -23 23 -12.703 0 -23 -10.297 -23 -23 0 -12.703 10.297 -23 23 -23 z" />
    </g>
    <path
       d="m 21.14,36.816 c -6.203,-0.98 -9.141,-3.527 -9.141,-4.32 l 0,-4.242 0.684,1.141 c 2.145,3.559 11.402,5.277 17.453,3.234 2.965,-0.996 4.719,-2.359 4.719,-3.66 -1.711,-3.953 -8.109,-3.66 -10.02,-4.805 l 0.137,-3.035 c 0.035,-0.777 5.301,0.797 7.219,1.789 2.824,1.457 3.539,2.496 3.727,5.371 0.207,3.254 -0.609,5.172 -2.719,6.41 -3.055,1.797 -8.289,2.711 -12.05,2.113 m -3.148,-7.824 c -4.473,-1.434 -5.992,-3.27 -5.992,-7.23 0,-2.984 0.953,-4.496 3.754,-5.934 3.582,-1.836 8.08,-2.27 12.867,-1.246 4.871,1.047 7.387,2.398 7.328,3.59 -0.016,0.938 0.113,4.531 0,4.238 -1.953,-4.992 -14.668,-6.66 -20.953,-2.766 -3.586,2.219 -1.535,5.102 4.41,6.207 1.184,0.219 3.582,0.469 4.055,0.559 l 0,3.148 c -0.973,-0.016 -4.539,-0.27 -5.465,-0.566 m -0.004,0"
       style="fill:#0aa3ec;fill-opacity:1;fill-rule:nonzero;stroke:none"
       id="path39"
       inkscape:connector-curvature="0" />
    <path
       d="M 21.14,33.781 C 14.937,32.797 11.999,30.25 11.999,29.457 l 0,-4.242 0.684,1.141 c 2.145,3.563 11.402,5.281 17.453,3.238 2.965,-1 4.719,-2.359 4.719,-3.66 -1.711,-3.953 -7.977,-3.664 -9.887,-4.805 l 0,-2.82 c 0,-0.777 5.301,0.582 7.219,1.57 2.824,1.457 3.539,2.496 3.727,5.375 0.207,3.254 -0.609,5.172 -2.719,6.41 -3.055,1.793 -8.289,2.711 -12.05,2.113 m -3.148,-7.824 c -4.473,-1.438 -5.992,-3.27 -5.992,-7.23 0,-2.988 0.953,-4.5 3.754,-5.938 3.582,-1.836 8.08,-2.27 12.867,-1.242 4.871,1.043 7.387,2.398 7.328,3.586 -0.016,0.941 0.113,4.531 0,4.242 -1.953,-4.996 -14.668,-6.66 -20.953,-2.77 -3.586,2.219 -1.535,5.102 4.41,6.207 1.184,0.219 3.582,0.473 4.055,0.559 l 0,3.148 c -0.973,-0.012 -4.539,-0.27 -5.465,-0.566 m -0.004,0.004"
       style="fill:#141414;fill-opacity:1;fill-rule:nonzero;stroke:none"
       id="path41"
       inkscape:connector-curvature="0" />
  </g>
</svg>
