<?xml version="1.0" encoding="UTF-8" standalone="no"?>
<svg
   xmlns:dc="http://purl.org/dc/elements/1.1/"
   xmlns:cc="http://creativecommons.org/ns#"
   xmlns:rdf="http://www.w3.org/1999/02/22-rdf-syntax-ns#"
   xmlns:svg="http://www.w3.org/2000/svg"
   xmlns="http://www.w3.org/2000/svg"
   xmlns:sodipodi="http://sodipodi.sourceforge.net/DTD/sodipodi-0.dtd"
   xmlns:inkscape="http://www.inkscape.org/namespaces/inkscape"
   viewBox="0 0 48 48"
   id="svg2"
   version="1.1"
   inkscape:version="0.91 r13725"
   sodipodi:docname="sweethome3d.svg">
  <metadata
     id="metadata51">
    <rdf:RDF>
      <cc:Work
         rdf:about="">
        <dc:format>image/svg+xml</dc:format>
        <dc:type
           rdf:resource="http://purl.org/dc/dcmitype/StillImage" />
        <dc:title></dc:title>
      </cc:Work>
    </rdf:RDF>
  </metadata>
  <sodipodi:namedview
     pagecolor="#ffffff"
     bordercolor="#666666"
     borderopacity="1"
     objecttolerance="10"
     gridtolerance="10"
     guidetolerance="10"
     inkscape:pageopacity="0"
     inkscape:pageshadow="2"
     inkscape:window-width="1321"
     inkscape:window-height="744"
     id="namedview49"
     showgrid="false"
     inkscape:zoom="11.984375"
     inkscape:cx="22.539765"
     inkscape:cy="24"
     inkscape:window-x="39"
     inkscape:window-y="24"
     inkscape:window-maximized="1"
     inkscape:current-layer="svg2" />
  <defs
     id="defs4">
    <linearGradient
       id="linearGradient3764"
       x1="1"
       x2="47"
       gradientUnits="userSpaceOnUse"
       gradientTransform="matrix(0,-1,1,0,-1.5e-6,47.999998)">
      <stop
         style="stop-color:#e4e4e4;stop-opacity:1"
         id="stop7" />
      <stop
         offset="1"
         style="stop-color:#eee;stop-opacity:1"
         id="stop9" />
    </linearGradient>
  </defs>
  <g
     id="g19">
    <path
       d="m 24 1 c 12.703 0 23 10.297 23 23 c 0 12.703 -10.297 23 -23 23 -12.703 0 -23 -10.297 -23 -23 0 -12.703 10.297 -23 23 -23 z"
       style="fill:url(#linearGradient3764);fill-opacity:1"
       id="path21" />
  </g>
  <g
     transform="translate(-1,-1)"
     id="g33">
    <path
       d="m 14 20 20 0 0 16 -20 0 z"
       style="fill:#f9f9f9;fill-opacity:1;stroke:none"
       id="path35" />
    <path
       d="m 34 36 3 -1 0 -16 -3 1 z"
       style="fill:#999;stroke:none"
       id="path37" />
    <path
       d="m 24 11 3 -1 11 9 -3 1 z"
       style="fill:#c83737;stroke:none"
       id="path39" />
    <path
       d="m 18 12 1 0 c 0.554 0 1 0.446 1 1 l 0 4 c 0 0.554 -0.446 1 -1 1 l -1 0 c -0.554 0 -1 -0.446 -1 -1 l 0 -4 c 0 -0.554 0.446 -1 1 -1 z"
       style="fill:#a05a2c;fill-opacity:1;stroke:none"
       id="path41" />
    <path
       d="m 13 20 22 0 -11 -9"
       style="fill:#de8787;stroke:none"
       id="path43" />
    <path
       d="m 17 27 c 2 -2 4 -2 6 0 l 0 9 -6 0 z"
       style="fill:#a05a2c;fill-opacity:1;stroke:none"
       id="path45" />
    <path
       d="m 27 22 3 0 c 0.554 0 1 0.446 1 1 l 0 3 c 0 0.554 -0.446 1 -1 1 l -3 0 c -0.554 0 -1 -0.446 -1 -1 l 0 -3 c 0 -0.554 0.446 -1 1 -1 z"
       style="fill:#acf;fill-opacity:1;stroke:none"
       id="path47" />
  </g>
</svg>
