<?xml version="1.0" encoding="UTF-8" standalone="no"?>
<svg
   xmlns:dc="http://purl.org/dc/elements/1.1/"
   xmlns:cc="http://creativecommons.org/ns#"
   xmlns:rdf="http://www.w3.org/1999/02/22-rdf-syntax-ns#"
   xmlns:svg="http://www.w3.org/2000/svg"
   xmlns="http://www.w3.org/2000/svg"
   xmlns:sodipodi="http://sodipodi.sourceforge.net/DTD/sodipodi-0.dtd"
   xmlns:inkscape="http://www.inkscape.org/namespaces/inkscape"
   viewBox="0 0 48 48"
   id="svg2"
   version="1.1"
   inkscape:version="0.91 r13725"
   sodipodi:docname="xdiagnose.svg">
  <metadata
     id="metadata49">
    <rdf:RDF>
      <cc:Work
         rdf:about="">
        <dc:format>image/svg+xml</dc:format>
        <dc:type
           rdf:resource="http://purl.org/dc/dcmitype/StillImage" />
        <dc:title></dc:title>
      </cc:Work>
    </rdf:RDF>
  </metadata>
  <sodipodi:namedview
     pagecolor="#ffffff"
     bordercolor="#666666"
     borderopacity="1"
     objecttolerance="10"
     gridtolerance="10"
     guidetolerance="10"
     inkscape:pageopacity="0"
     inkscape:pageshadow="2"
     inkscape:window-width="1321"
     inkscape:window-height="744"
     id="namedview47"
     showgrid="false"
     inkscape:zoom="11.984375"
     inkscape:cx="21.468927"
     inkscape:cy="24"
     inkscape:window-x="39"
     inkscape:window-y="24"
     inkscape:window-maximized="1"
     inkscape:current-layer="svg2" />
  <defs
     id="defs4">
    <linearGradient
       id="linearGradient3764"
       x1="1"
       x2="47"
       gradientUnits="userSpaceOnUse"
       gradientTransform="matrix(0,-1,1,0,-1.5e-6,47.999998)">
      <stop
         style="stop-color:#6fc1e3;stop-opacity:1"
         id="stop7" />
      <stop
         offset="1"
         style="stop-color:#80c7e6;stop-opacity:1"
         id="stop9" />
    </linearGradient>
  </defs>
  <g
     id="g19">
    <path
       d="m 24 1 c 12.703 0 23 10.297 23 23 c 0 12.703 -10.297 23 -23 23 -12.703 0 -23 -10.297 -23 -23 0 -12.703 10.297 -23 23 -23 z"
       style="fill:url(#linearGradient3764);fill-opacity:1"
       id="path21" />
  </g>
  <g
     id="g35">
    <g
       id="g37">
      <!-- color: #80c7e6 -->
      <g
         id="g39">
        <path
           d="m 11 11 l 4.215 6.422 c 0.273 -0.441 0.582 -0.859 0.965 -1.242 c 1.609 -1.609 3.824 -2.219 5.918 -1.879 l -2.16 -3.301 m 2.156 3.301 l 1.09 1.652 c 0.422 0.18 0.82 0.391 1.195 0.684 l 0.684 -1.094 c -0.895 -0.664 -1.918 -1.07 -2.969 -1.242 m 2.969 1.242 c 0.262 0.195 0.523 0.398 0.762 0.637 c 2.461 2.465 2.645 6.391 0.531 9.06 l 3.543 3.543 l -1.117 1.117 l -3.543 -3.543 c -2.195 1.742 -5.234 1.918 -7.617 0.559 l -6.625 10.08 l 8.934 0 l 4.066 -6.195 l 4.063 6.195 l 8.938 0 l -8.523 -13 l 8.523 -13 l -8.938 0 m -10.438 15.918 l 0.711 -1.09 c -0.438 -0.246 -0.871 -0.543 -1.242 -0.914 c -1.691 -1.691 -2.023 -4.203 -1.066 -6.246 l -0.809 -1.246 c -1.617 2.625 -1.313 6.129 0.965 8.406 c 0.438 0.438 0.93 0.797 1.441 1.09 m -1.598 -8.25 l 3.504 5.332 l -1.191 1.828 c 2.102 1.168 4.793 0.871 6.574 -0.914 c 2.156 -2.16 2.156 -5.664 0 -7.82 c -0.168 -0.168 -0.352 -0.316 -0.527 -0.457 l -0.379 0.559 l -0.816 -1.242 c -2.01 -0.871 -4.445 -0.508 -6.094 1.141 c -0.469 0.469 -0.801 1.012 -1.066 1.574 m 14.203 9.977 l 3.543 3.543 l -1.598 1.598 l -3.543 -3.543 m 1.598 -1.598"
           style="fill:#2d2d2d;fill-opacity:1;stroke:none;fill-rule:nonzero"
           id="path41" />
      </g>
    </g>
  </g>
</svg>
