<?xml version="1.0" encoding="UTF-8" standalone="no"?>
<svg
   xmlns:dc="http://purl.org/dc/elements/1.1/"
   xmlns:cc="http://creativecommons.org/ns#"
   xmlns:rdf="http://www.w3.org/1999/02/22-rdf-syntax-ns#"
   xmlns:svg="http://www.w3.org/2000/svg"
   xmlns="http://www.w3.org/2000/svg"
   xmlns:sodipodi="http://sodipodi.sourceforge.net/DTD/sodipodi-0.dtd"
   xmlns:inkscape="http://www.inkscape.org/namespaces/inkscape"
   viewBox="0 0 48 48"
   id="svg2"
   version="1.1"
   inkscape:version="0.91 r13725"
   sodipodi:docname="xournal.svg">
  <metadata
     id="metadata55">
    <rdf:RDF>
      <cc:Work
         rdf:about="">
        <dc:format>image/svg+xml</dc:format>
        <dc:type
           rdf:resource="http://purl.org/dc/dcmitype/StillImage" />
        <dc:title></dc:title>
      </cc:Work>
    </rdf:RDF>
  </metadata>
  <sodipodi:namedview
     pagecolor="#ffffff"
     bordercolor="#666666"
     borderopacity="1"
     objecttolerance="10"
     gridtolerance="10"
     guidetolerance="10"
     inkscape:pageopacity="0"
     inkscape:pageshadow="2"
     inkscape:window-width="1321"
     inkscape:window-height="744"
     id="namedview53"
     showgrid="false"
     inkscape:zoom="11.984375"
     inkscape:cx="21.468927"
     inkscape:cy="24"
     inkscape:window-x="39"
     inkscape:window-y="24"
     inkscape:window-maximized="1"
     inkscape:current-layer="svg2" />
  <defs
     id="defs4">
    <linearGradient
       id="linearGradient3764"
       x1="1"
       x2="47"
       gradientUnits="userSpaceOnUse"
       gradientTransform="matrix(0,-1,1,0,-1.5e-6,47.999998)">
      <stop
         style="stop-color:#dbdbdb;stop-opacity:1"
         id="stop7" />
      <stop
         offset="1"
         style="stop-color:#e5e5e5;stop-opacity:1"
         id="stop9" />
    </linearGradient>
  </defs>
  <g
     id="g19">
    <path
       d="m 24 1 c 12.703 0 23 10.297 23 23 c 0 12.703 -10.297 23 -23 23 -12.703 0 -23 -10.297 -23 -23 0 -12.703 10.297 -23 23 -23 z"
       style="fill:url(#linearGradient3764);fill-opacity:1"
       id="path21" />
  </g>
  <g
     id="g35">
    <g
       id="g37">
      <!-- color: #e5e5e5 -->
      <g
         id="g39">
        <path
           d="m 19.598 12.742 l 13.813 15.75 c 2.035 2.449 -1.773 2.801 -2.605 2.59 l -14.406 -16.496 c -1.895 -2.078 1.93 -2.852 3.199 -1.844 m 0 0"
           style="fill:#2d2d2d;fill-opacity:1;stroke:none;fill-rule:nonzero"
           id="path41" />
        <path
           d="m 28.21 14.617 l -5.676 6.453 l -7.762 11.211 c -2.559 5.863 1.937 3.457 2.781 1.742 l 6.645 -10.91 l 8.04 -8.336 c 1.559 -2.449 -1.012 -4.707 -4.04 -0.16 m 0 0"
           style="fill:#2d2d2d;fill-opacity:1;stroke:none;fill-rule:nonzero"
           id="path43" />
        <path
           d="m 16.555 33.922 c 1.168 0.223 1.582 0.313 2.305 -0.133 c -0.074 0.43 -0.148 0.855 -0.223 1.285 c -0.707 0.223 -1.418 0.488 -2.125 -0.133 m 0.043 -1.02"
           style="fill:#2d2d2d;fill-opacity:1;stroke:none;fill-rule:nonzero"
           id="path45" />
        <path
           d="m 31.27 20.01 -11.697 10.734 -1.57 4.258 l 4.367 -1.289 0.012 0.012 0.023 -0.023 0.004 0 11.578 -10.75 c 0 0 0.192 -0.637 -0.979 -1.883 -0.85 -0.899 -1.478 -1.043 -1.738 -1.059 z"
           style="fill:#3686dd;fill-opacity:1;stroke:none;fill-rule:nonzero"
           id="path47" />
      </g>
    </g>
  </g>
</svg>
