<?xml version="1.0" encoding="UTF-8" standalone="no"?>
<svg
   xmlns:dc="http://purl.org/dc/elements/1.1/"
   xmlns:cc="http://creativecommons.org/ns#"
   xmlns:rdf="http://www.w3.org/1999/02/22-rdf-syntax-ns#"
   xmlns:svg="http://www.w3.org/2000/svg"
   xmlns="http://www.w3.org/2000/svg"
   xmlns:sodipodi="http://sodipodi.sourceforge.net/DTD/sodipodi-0.dtd"
   xmlns:inkscape="http://www.inkscape.org/namespaces/inkscape"
   viewBox="0 0 48 48"
   id="svg2"
   version="1.1"
   inkscape:version="0.91 r13725"
   sodipodi:docname="zim.svg">
  <metadata
     id="metadata67">
    <rdf:RDF>
      <cc:Work
         rdf:about="">
        <dc:format>image/svg+xml</dc:format>
        <dc:type
           rdf:resource="http://purl.org/dc/dcmitype/StillImage" />
        <dc:title></dc:title>
      </cc:Work>
    </rdf:RDF>
  </metadata>
  <sodipodi:namedview
     pagecolor="#ffffff"
     bordercolor="#666666"
     borderopacity="1"
     objecttolerance="10"
     gridtolerance="10"
     guidetolerance="10"
     inkscape:pageopacity="0"
     inkscape:pageshadow="2"
     inkscape:window-width="1321"
     inkscape:window-height="744"
     id="namedview65"
     showgrid="false"
     inkscape:zoom="11.984375"
     inkscape:cx="21.468927"
     inkscape:cy="24"
     inkscape:window-x="39"
     inkscape:window-y="24"
     inkscape:window-maximized="1"
     inkscape:current-layer="svg2" />
  <defs
     id="defs4">
    <linearGradient
       id="linearGradient3764"
       x1="1"
       x2="47"
       gradientUnits="userSpaceOnUse"
       gradientTransform="matrix(0,-1,1,0,-1.5e-6,47.999998)">
      <stop
         style="stop-color:#32a8ce;stop-opacity:1"
         id="stop7" />
      <stop
         offset="1"
         style="stop-color:#41afd2;stop-opacity:1"
         id="stop9" />
    </linearGradient>
  </defs>
  <g
     id="g19">
    <path
       d="m 24 1 c 12.703 0 23 10.297 23 23 c 0 12.703 -10.297 23 -23 23 -12.703 0 -23 -10.297 -23 -23 0 -12.703 10.297 -23 23 -23 z"
       style="fill:url(#linearGradient3764);fill-opacity:1"
       id="path21" />
  </g>
  <g
     id="g35">
    <g
       id="g37">
      <!-- color: #41afd2 -->
      <g
         id="g39">
        <path
           d="m 14 12 20 0 c 1.105 0 2 0.895 2 2 l 0 20 c 0 1.105 -0.895 2 -2 2 l -20 0 c -1.105 0 -2 -0.895 -2 -2 l 0 -20 c 0 -1.105 0.895 -2 2 -2 m 0 0"
           style="fill:#fff;fill-opacity:1;stroke:none;fill-rule:nonzero"
           id="path41" />
        <path
           d="m 14 12 c -1.109 0 -2 0.891 -2 2 l 0 20 c 0 1.109 0.891 2 2 2 l 10 0 0 -24 m -10 0"
           style="fill:#fbebcf;fill-opacity:1;stroke:none;fill-rule:nonzero"
           id="path43" />
        <path
           d="m 14 12 c -1.109 0 -2 0.891 -2 2 l 0 20 c 0 1.109 0.891 2 2 2 l 1 0 c -1.109 0 -2 -0.891 -2 -2 l 0 -20 c 0 -1.109 0.891 -2 2 -2 m -1 0"
           style="fill:#fff;fill-opacity:1;stroke:none;fill-rule:nonzero"
           id="path45" />
        <path
           d="m 33 12 c 1.109 0 2 0.891 2 2 l 0 20 c 0 1.109 -0.891 2 -2 2 l 1 0 c 1.109 0 2 -0.891 2 -2 l 0 -20 c 0 -1.109 -0.891 -2 -2 -2 m -1 0"
           style="fill:#fbebcf;fill-opacity:1;stroke:none;fill-rule:nonzero"
           id="path47" />
        <path
           d="m 15 14 7 0 0 2 -7 0 m 0 -2"
           style="fill:#2d2d2d;fill-opacity:0.4;stroke:none;fill-rule:nonzero"
           id="path49" />
        <path
           d="m 26 32 7 0 0 2 -7 0 m 0 -2"
           style="fill:#2d2d2d;fill-opacity:0.4;stroke:none;fill-rule:nonzero"
           id="path51" />
        <path
           d="m 15 19 18 0 0 1 -18 0 m 0 -1"
           style="fill:#2d2d2d;fill-opacity:0.4;stroke:none;fill-rule:nonzero"
           id="path53" />
        <path
           d="m 15 22 18 0 0 1 -18 0 m 0 -1"
           style="fill:#2d2d2d;fill-opacity:0.4;stroke:none;fill-rule:nonzero"
           id="path55" />
        <path
           d="m 15 25 18 0 0 1 -18 0 m 0 -1"
           style="fill:#2d2d2d;fill-opacity:0.4;stroke:none;fill-rule:nonzero"
           id="path57" />
        <path
           d="m 15 28 18 0 0 1 -18 0 m 0 -1"
           style="fill:#2d2d2d;fill-opacity:0.4;stroke:none;fill-rule:nonzero"
           id="path59" />
      </g>
    </g>
  </g>
</svg>
